<?xml version="1.0" encoding="utf-8"?>
<!-- Generator: Adobe Illustrator 17.1.0, SVG Export Plug-In . SVG Version: 6.00 Build 0)  -->
<!DOCTYPE svg PUBLIC "-//W3C//DTD SVG 1.1//EN" "http://www.w3.org/Graphics/SVG/1.1/DTD/svg11.dtd">
<svg version="1.1" id="Layer_1" xmlns="http://www.w3.org/2000/svg" xmlns:xlink="http://www.w3.org/1999/xlink" x="0px" y="0px"
	 viewBox="0 0 256 206" enable-background="new 0 0 256 206" xml:space="preserve">
<g>
	<path fill="#E0E2E5" d="M9,31.5c0-6,0-12,0-18c0.45-1.55,1.45-2.55,3-3c78,0,156,0,234,0c1.55,0.45,2.55,1.45,3,3c0,6,0,12,0,18
		c-0.501,0.446-1.048,0.828-1.637,1.149c-2.197,1.056-4.559,0.844-6.88,0.844c-74.321,0.015-148.641,0.015-222.962,0
		c-2.321,0-4.683,0.214-6.886-0.834C10.044,32.338,9.5,31.95,9,31.5z"/>
	<path fill="#DFE1E4" d="M249,185.5c0,3,0,6,0,9c-0.45,1.55-1.45,2.55-3,3c-78,0-156,0-234,0c-1.55-0.45-2.55-1.45-3-3
		c0-2.333,0-4.667,0-7c0.539-0.394,1.139-0.637,1.799-0.736c3.451,0.574,6.924,0.762,10.428,0.761
		c71.611-0.021,143.221-0.025,214.832,0.011c3.877,0.002,7.649-0.103,11.045-2.268C247.769,185.076,248.401,185.157,249,185.5z"/>
	<path fill="#E2E4E6" d="M10.063,187.477C9.709,187.484,9.354,187.492,9,187.5c0-52,0-104,0-156
		c0.344,0.005,0.688,0.009,1.032,0.014c1.96,1.971,1.96,4.499,1.961,7.011c0.023,47.325,0.025,94.649-0.011,141.974
		C11.98,182.969,12.196,185.563,10.063,187.477z"/>
	<path fill="#E2E4E6" d="M249,185.5c-0.32,0-0.64,0.002-0.961,0.005c-2.045-1.705-2.013-4.1-2.015-6.415
		c-0.049-47.028-0.043-94.056-0.013-141.085c0.001-2.353,0.147-4.677,1.957-6.492c0.344-0.005,0.688-0.009,1.032-0.014
		C249,82.833,249,134.167,249,185.5z"/>
	<path fill="#F9FAFA" d="M249,13.5c-1-1-2-2-3-3C248.499,10.001,249.499,11.001,249,13.5z"/>
	<path fill="#F9FAFA" d="M12,10.5c-1,1-2,2-3,3C8.501,11.001,9.501,10.001,12,10.5z"/>
	<path fill="#F9FAFA" d="M9,194.5c1,1,2,2,3,3C9.501,197.999,8.501,196.999,9,194.5z"/>
	<path fill="#F9FAFA" d="M246,197.5c1-1,2-2,3-3C249.499,196.999,248.499,197.999,246,197.5z"/>
	<path fill="#FEFEFE" d="M247.968,31.514c0.024,51.33,0.047,102.661,0.071,153.991c-1.471,3.954-4.76,4.02-8.232,4.017
		c-38.132-0.035-76.265-0.021-114.397-0.021c-35.968,0-71.935-0.014-107.903,0.028c-2.724,0.003-5.324-0.052-7.444-2.052
		c-0.01-51.988-0.02-103.976-0.03-155.963C89.344,31.514,168.656,31.514,247.968,31.514z"/>
	<path fill="#FEFEFE" d="M136.479,15.5c27.656,0,55.312-0.005,82.968,0.004c6.24,0.002,6.889,0.819,6.593,6.853
		c-0.145,2.97-1.403,4.274-4.304,4.14c-0.665-0.031-1.333,0.003-1.999,0.003c-55.478,0-110.957-0.015-166.435,0.035
		c-3.697,0.003-6.419-0.128-6.435-5.139c-0.015-4.672,1.622-6.002,6.146-5.976C80.834,15.581,108.657,15.5,136.479,15.5z"/>
	<path fill="#FBFBFC" d="M240.462,20.128c-0.525,1.817-1.321,3.239-3.346,3.302c-2.017,0.063-3.214-1.213-3.408-2.975
		c-0.209-1.901,1.087-2.32,2.925-2.301C238.429,18.174,239.928,18.112,240.462,20.128z"/>
	<path fill="#71B75B" d="M36.316,23.38c-1.403-0.33-2.369-1.137-2.184-2.681c0.18-1.502,1.188-2.293,2.719-2.084
		c1.29,0.176,2.059,1.109,2.014,2.35C38.811,22.437,37.865,23.277,36.316,23.38z"/>
	<path fill="#F9B25F" d="M29.919,20.854c-0.302,1.595-1.076,2.596-2.686,2.446c-1.325-0.124-2.145-1.055-2.103-2.345
		c0.05-1.531,0.998-2.446,2.603-2.326C29.106,18.733,29.65,19.742,29.919,20.854z"/>
	<path fill="#F95F61" d="M20.887,20.675c-0.022,1.564-0.814,2.564-2.291,2.654c-1.512,0.092-2.456-0.893-2.501-2.379
		c-0.038-1.255,0.73-2.164,2.023-2.342C19.673,18.394,20.511,19.276,20.887,20.675z"/>
	<path fill="#9D9BA0" d="M129.978,64.5c-21.311,0-42.623-0.076-63.933,0.072c-3.7,0.026-5.614-0.653-5.095-4.856
		c0.604-4.892-2.072-11.262,1.133-14.372c2.951-2.863,9.204-0.802,13.995-0.809c38.959-0.061,77.919,0.043,116.878-0.137
		c4.604-0.021,6.837,0.805,6.096,5.887c-0.663,4.547,1.977,10.477-1.096,13.407c-2.796,2.666-8.577,0.757-13.036,0.776
		C166.606,64.546,148.292,64.5,129.978,64.5z"/>
	<path fill="#C3C0C6" d="M129.833,163.5c-20.981,0-41.962,0.001-62.943-0.003c-1.331,0-2.666,0.003-3.992-0.088
		c-1.501-0.103-1.846-1.166-1.844-2.452c0.002-1.316,0.452-2.297,1.927-2.386c1.162-0.071,2.33-0.068,3.495-0.068
		c42.295-0.003,84.59-0.004,126.886,0.003c1.329,0,2.664,0.02,3.986,0.144c1.247,0.116,1.558,1.065,1.584,2.144
		c0.03,1.233-0.112,2.427-1.667,2.575c-1.321,0.126-2.658,0.126-3.988,0.126C172.128,163.502,150.981,163.5,129.833,163.5z"/>
	<path fill="#C3C0C6" d="M130.254,149.5c21.314,0,42.629-0.024,63.943,0.042c1.889,0.006,4.793-1.078,4.718,2.585
		c-0.068,3.284-2.711,2.333-4.476,2.335c-42.962,0.047-85.923,0.047-128.885,0.001c-1.767-0.002-4.409,0.941-4.468-2.343
		c-0.066-3.662,2.839-2.572,4.726-2.578C87.292,149.476,108.773,149.5,130.254,149.5z"/>
	<path fill="#C3C0C6" d="M129.735,145.5c-21.314,0-42.629,0.024-63.943-0.041c-1.891-0.006-4.795,1.069-4.706-2.597
		c0.079-3.283,2.725-2.321,4.486-2.323c42.962-0.048,85.923-0.047,128.885-0.002c1.771,0.002,4.41-0.928,4.458,2.355
		c0.054,3.658-2.852,2.56-4.737,2.566C172.697,145.524,151.216,145.5,129.735,145.5z"/>
	<path fill="#C3C0C6" d="M129.723,119.5c-21.314,0-42.628,0.024-63.942-0.041c-1.896-0.006-4.797,1.053-4.693-2.612
		c0.093-3.282,2.742-2.306,4.499-2.308c42.961-0.049,85.922-0.048,128.883-0.004c1.776,0.002,4.411-0.911,4.445,2.369
		c0.038,3.654-2.868,2.546-4.751,2.552C172.684,119.524,151.203,119.5,129.723,119.5z"/>
	<path fill="#C3C0C6" d="M129.753,110.5c-21.148,0-42.296,0.038-63.443-0.063c-1.948-0.009-5.256,1.444-5.193-2.557
		c0.057-3.605,3.097-2.322,4.937-2.325c42.629-0.07,85.257-0.054,127.886-0.054c0.666,0,1.332,0.017,1.998,0.008
		c1.643-0.023,2.962,0.253,3.023,2.363c0.07,2.417-1.444,2.629-3.267,2.627c-8.159-0.012-16.319,0.001-24.478,0.001
		C157.395,110.501,143.574,110.5,129.753,110.5z"/>
	<path fill="#C3C0C6" d="M129.763,102.5c-21.148,0-42.296,0.038-63.443-0.063c-1.948-0.009-5.254,1.449-5.204-2.548
		c0.046-3.606,3.086-2.332,4.928-2.335c42.629-0.069,85.257-0.054,127.886-0.053c0.666,0,1.332,0.016,1.998,0.008
		c1.636-0.02,2.968,0.237,3.033,2.353c0.074,2.413-1.427,2.64-3.256,2.637c-7.826-0.013-15.653,0-23.479,0.001
		C158.071,102.501,143.917,102.5,129.763,102.5z"/>
	<path fill="#C3C0C6" d="M129.79,93.5c-21.314,0-42.629,0.025-63.943-0.044c-1.881-0.006-4.847,1.106-4.748-2.54
		c0.098-3.612,3.071-2.361,4.918-2.364c42.629-0.067,85.257-0.052,127.886-0.051c0.666,0,1.332,0.012,1.998,0.008
		c1.616-0.01,2.982,0.193,3.058,2.326c0.085,2.399-1.381,2.668-3.228,2.664c-7.493-0.016-14.987,0-22.48,0
		C158.764,93.501,144.277,93.5,129.79,93.5z"/>
	<path fill="#C3C0C6" d="M130.216,79.5c21.148,0,42.296-0.038,63.443,0.064c1.947,0.009,5.249-1.458,5.225,2.527
		c-0.022,3.608-3.062,2.354-4.908,2.357c-42.629,0.068-85.257,0.052-127.886,0.052c-0.666,0-1.332-0.013-1.998-0.008
		c-1.621,0.012-2.979-0.203-3.052-2.332c-0.083-2.403,1.392-2.661,3.235-2.658c7.826,0.015,15.653,0,23.479-0.001
		C101.908,79.499,116.062,79.5,130.216,79.5z"/>
	<path fill="#C3C0C6" d="M130.278,70.5c21.314,0,42.629-0.024,63.943,0.041c1.895,0.006,4.796-1.057,4.692,2.611
		c-0.093,3.282-2.741,2.307-4.498,2.309c-42.962,0.049-85.923,0.048-128.885,0.004c-1.776-0.002-4.411,0.912-4.445-2.369
		c-0.038-3.654,2.868-2.547,4.751-2.553C87.316,70.476,108.797,70.5,130.278,70.5z"/>
	<path fill="#C3C0C6" d="M119.22,128.5c-17.815,0-35.629,0.028-53.444-0.041c-1.895-0.007-4.795,1.055-4.689-2.613
		c0.096-3.281,2.743-2.304,4.5-2.307c35.962-0.051,71.925-0.05,107.887-0.004c1.776,0.002,4.41-0.908,4.442,2.371
		c0.036,3.652-2.87,2.542-4.753,2.55C155.182,128.529,137.201,128.5,119.22,128.5z"/>
	<path fill="#C3C0C6" d="M95.618,172.498c-10.149,0-20.298,0.029-30.447-0.029c-1.664-0.01-3.932,0.704-4.103-2.229
		c-0.19-3.266,2.214-2.721,4.116-2.724c20.298-0.024,40.596-0.021,60.894-0.004c1.78,0.001,3.881-0.375,3.875,2.494
		c-0.005,2.873-2.114,2.476-3.888,2.48C115.916,172.51,105.767,172.498,95.618,172.498z"/>
</g>
</svg>
