<?xml version="1.0" encoding="utf-8"?>
<!-- Generator: Adobe Illustrator 17.1.0, SVG Export Plug-In . SVG Version: 6.00 Build 0)  -->
<!DOCTYPE svg PUBLIC "-//W3C//DTD SVG 1.1//EN" "http://www.w3.org/Graphics/SVG/1.1/DTD/svg11.dtd">
<svg version="1.1" id="hero_image" xmlns="http://www.w3.org/2000/svg" xmlns:xlink="http://www.w3.org/1999/xlink" x="0px" y="0px"
	 viewBox="0 0 256 206" enable-background="new 0 0 256 206" xml:space="preserve">
<g id="_x36_8BFnm_1_">
	<g>
		<path fill="#E0E2E5" d="M8.5,154c0-46.667,0-93.333,0-140c0.45-1.55,1.45-2.55,3-3c78,0,156,0,234,0c1.55,0.45,2.55,1.45,3,3
			c0,46.667,0,93.333,0,140c-0.712,0.066-1.282-0.187-1.715-0.755c-1.63-2.566-1.267-5.459-1.269-8.263
			c-0.03-34.479-0.006-68.957-0.024-103.436c-0.004-7.378-0.163-7.537-7.557-7.538c-72.955-0.011-145.91-0.012-218.864,0
			c-7.395,0.001-7.558,0.165-7.562,7.537c-0.018,34.479,0.005,68.957-0.024,103.436c-0.002,2.804,0.366,5.697-1.258,8.272
			C9.789,153.82,9.212,154.068,8.5,154z"/>
		<path fill="#DFE1E4" d="M248.5,186c0,3,0,6,0,9c-0.45,1.55-1.45,2.55-3,3c-78,0-156,0-234,0c-1.55-0.45-2.55-1.45-3-3
			c0-2.333,0-4.667,0-7c0.539-0.394,1.139-0.637,1.799-0.736c3.451,0.574,6.923,0.762,10.428,0.761
			c71.611-0.021,143.221-0.025,214.832,0.011c3.877,0.002,7.649-0.104,11.045-2.268C247.269,185.576,247.901,185.657,248.5,186z"/>
		<path fill="#E2E4E6" d="M9.562,187.978C9.208,187.985,8.854,187.993,8.5,188c0-11.333,0-22.667,0-34
			c0.377-0.028,0.753-0.055,1.13-0.083c0.227,0.234,0.453,0.469,0.684,0.7c1.492,2.576,1.123,5.427,1.144,8.199
			c0.047,6.252,0.077,12.506-0.02,18.758C11.403,183.851,11.548,186.245,9.562,187.978z"/>
		<path fill="#E2E4E6" d="M248.5,186c-0.32,0-0.641,0.002-0.961,0.005c-1.313-0.972-1.761-2.411-1.811-3.905
			c-0.281-8.396-0.456-16.794,0.101-25.186c0.055-0.829,0.416-1.588,0.846-2.301c0.229-0.233,0.462-0.464,0.695-0.694
			c0.376,0.027,0.753,0.055,1.129,0.082C248.5,164.667,248.5,175.333,248.5,186z"/>
		<path fill="#F9FAFA" d="M248.5,14c-1-1-2-2-3-3C247.999,10.501,248.999,11.501,248.5,14z"/>
		<path fill="#F9FAFA" d="M11.5,11c-1,1-2,2-3,3C8.001,11.501,9.001,10.501,11.5,11z"/>
		<path fill="#F9FAFA" d="M8.5,195c1,1,2,2,3,3C9.001,198.499,8.001,197.499,8.5,195z"/>
		<path fill="#F9FAFA" d="M245.5,198c1-1,2-2,3-3C248.999,197.499,247.999,198.499,245.5,198z"/>
		<path fill="#494C51" d="M9.63,153.917C9.577,114.456,9.591,74.994,9.371,35.533c-0.023-4.201,2.284-3.534,4.731-3.534
			C61.893,32,109.684,32,157.475,32c28.475,0,56.95,0.001,85.424-0.001c2.448,0,4.754-0.665,4.73,3.534
			c-0.22,39.461-0.205,78.923-0.259,118.384c0,0,0.102,0.019,0.102,0.019c-2.711,2.694-6.187,2.047-9.45,2.049
			c-67.527,0.032-135.053,0.023-202.58,0.022c-6.32,0-12.64,0.02-18.961-0.014c-2.513-0.013-5.03-0.045-6.955-2.058L9.63,153.917z"
			/>
		<path fill="#FEFEFE" d="M136.026,27c-27.656,0-55.312,0.005-82.968-0.003c-6.249-0.002-6.891-0.81-6.599-6.846
			c0.143-2.965,1.389-4.282,4.296-4.147C51.421,16.034,52.088,16,52.755,16c55.478,0,110.957,0.015,166.435-0.034
			c3.69-0.003,6.427,0.114,6.443,5.132c0.015,4.664-1.609,6.009-6.14,5.983C191.672,26.919,163.849,27,136.026,27z"/>
		<path fill="#FBFBFC" d="M236.667,18.756c1.878-0.415,3.279,0.202,3.15,2.09c-0.119,1.742-1.29,3.086-3.313,3.085
			c-2.02-0.002-3.24-1.341-3.306-3.083C233.11,18.494,234.97,18.458,236.667,18.756z"/>
		<path fill="#F95F61" d="M20.416,21.415c-0.216,1.472-1.014,2.493-2.524,2.416c-1.467-0.074-2.389-1.042-2.278-2.589
			c0.092-1.284,0.926-2.098,2.213-2.161C19.381,19.004,20.157,19.963,20.416,21.415z"/>
		<path fill="#F9B25F" d="M29.359,21.227c-0.019,1.58-0.86,2.551-2.385,2.596c-1.285,0.038-2.212-0.799-2.324-2.126
			c-0.135-1.601,0.808-2.538,2.34-2.587C28.294,19.068,29.094,19.919,29.359,21.227z"/>
		<path fill="#71B75B" d="M38.388,21.22c-0.044,1.561-0.857,2.554-2.33,2.612c-1.495,0.06-2.438-0.921-2.454-2.422
			c-0.014-1.265,0.765-2.149,2.057-2.305C37.217,18.916,38.035,19.818,38.388,21.22z"/>
		<path fill="#FEFEFE" d="M9.527,153.936c79.315,0,158.63,0.001,237.946,0.001c0.022,10.689,0.043,21.379,0.066,32.068
			c-1.471,3.955-4.76,4.02-8.232,4.017c-38.132-0.035-76.265-0.021-114.397-0.021c-35.968,0-71.935-0.014-107.903,0.028
			c-2.725,0.003-5.323-0.053-7.445-2.051C9.551,176.63,9.539,165.283,9.527,153.936z"/>
		<path fill="#9D9BA0" d="M128.748,95c-19.497,0-38.995-0.087-58.491,0.078c-3.649,0.031-5.109-0.857-4.832-4.711
			c0.322-4.476,0.242-9.001,0.02-13.49c-0.156-3.153,1.107-3.931,4.065-3.926c39.661,0.075,79.321,0.075,118.982,0
			c2.963-0.006,4.217,0.781,4.062,3.929c-0.222,4.488-0.302,9.014,0.02,13.49c0.278,3.859-1.192,4.737-4.836,4.707
			C168.076,94.914,148.412,95,128.748,95z"/>
		<path fill="#9D9BA0" d="M128.749,115c-13.831,0-27.663-0.117-41.492,0.079c-3.65,0.052-4.993-0.858-4.84-4.708
			c0.343-8.612-0.631-7.334,7.09-7.35c26.329-0.055,52.657,0.033,78.986-0.075c4.315-0.018,7.83-0.429,7.147,5.944
			c-0.649,6.053-0.136,6.109-7.398,6.109C155.078,115,141.914,115,128.749,115z"/>
	</g>
</g>
</svg>
