<?xml version="1.0" encoding="utf-8"?>
<!-- Generator: Adobe Illustrator 18.1.0, SVG Export Plug-In . SVG Version: 6.00 Build 0)  -->
<!DOCTYPE svg PUBLIC "-//W3C//DTD SVG 1.1//EN" "http://www.w3.org/Graphics/SVG/1.1/DTD/svg11.dtd">
<svg version="1.1" id="Layer_1" xmlns="http://www.w3.org/2000/svg" xmlns:xlink="http://www.w3.org/1999/xlink" x="0px" y="0px"
	 viewBox="0 0 200 200" enable-background="new 0 0 200 200" xml:space="preserve">
<path fill="#404041" d="M179.3,50.6c-7.5-10.4-60.5-39-77-42.8c-0.2,0-1.3-0.4-2.5-0.4s-2.4,0.4-2.6,0.4
	c-16.5,3.8-69.4,32.4-77,42.8c-2,2.7-5.9,25.5-5.8,48c0,22.5,3.9,45.3,5.8,48c7.5,10.4,60.5,39,77,42.8c0.2,0,1.5,0.4,2.6,0.4
	s2.3-0.4,2.5-0.4c16.5-3.8,69.4-32.4,77-42.8c2-2.7,5.9-25.5,5.8-48C185.1,76.2,181.3,53.4,179.3,50.6z"/>
<path fill="#F1F1F2" stroke="#F1F1F2" stroke-width="2" stroke-miterlimit="10" d="M112.5,66.2L112.5,66.2l0-10.1
	c0-3.8-1.3-7.3-3.7-9.9c-2.4-2.7-5.6-4.2-9.1-4.2c-7,0-12.7,6.4-12.7,14.2v10.4h0v70.1h0l12.1,22.9l13.2-22.8h0.1V66.2z M92.6,140.1
	l2.4-2.4l2.2,2.2l0,0l2.3,2.4l2.3-2.3l0,0l0.1-0.1l0,0l0.2-0.2l1.1-1l0-0.1l0.9-0.9l2.6,2.6l-4.4,8.1l-5.5-0.2L92.6,140.1z
	 M104.2,133.1l-4.2,4.2l-0.4,0.3l-0.1-0.1l0,0l-4.5-4.5l-4,4l-0.7-1.4V79h19v56.7l-0.9,1.6L104.2,133.1z M109.3,75.8h-19v-2.9h19
	V75.8z M99.8,45.1c2.5,0,4.9,1.1,6.7,3.1c1.8,2.1,2.9,4.8,2.9,7.8v7.2h-19v-0.5h0v-6.7C90.3,50,94.5,45.1,99.8,45.1z M109.3,66.5
	v3.2h-19v-3.2H109.3z"/>
</svg>
