<?xml version="1.0" encoding="utf-8"?>
<!-- Generator: Adobe Illustrator 18.1.0, SVG Export Plug-In . SVG Version: 6.00 Build 0)  -->
<!DOCTYPE svg PUBLIC "-//W3C//DTD SVG 1.1//EN" "http://www.w3.org/Graphics/SVG/1.1/DTD/svg11.dtd">
<svg version="1.1" id="Layer_1" xmlns="http://www.w3.org/2000/svg" xmlns:xlink="http://www.w3.org/1999/xlink" x="0px" y="0px"
	 viewBox="0 0 200 200" enable-background="new 0 0 200 200" xml:space="preserve">
<g>
	<polygon fill="#F1F1F2" points="87.8,64.6 87.8,136.9 98.7,157 110.5,137.1 110.5,64.6 	"/>
	<path fill="#F1F1F2" d="M110.5,56.9v9H87.7v-9c0-7.1,5.1-12.8,11.4-12.8c3.2,0,6,1.4,8.1,3.8C109.2,50.2,110.5,53.4,110.5,56.9z"/>
	<path fill="#292F2E" d="M112.2,67.6L112.2,67.6l0-10.4c0-3.9-1.3-7.5-3.8-10.2c-2.5-2.8-5.7-4.3-9.3-4.3c-7.2,0-13,6.5-13,14.5
		v10.7h0v71.7h0l12.4,23.5l13.5-23.3h0.1V67.6z M91.8,143.2l2.5-2.5l2.2,2.2l0,0l2.4,2.5l2.4-2.3l0,0l0.1-0.1l0,0l0.2-0.2l1.2-1.1
		l-0.1-0.1l0.9-0.9l2.6,2.6l-3,5.2h-8.6L91.8,143.2z M103.6,136.1l-4.3,4.3l-0.4,0.4l-0.1-0.1l0,0l-4.6-4.6l-4.1,4.1l-0.8-1.4v-58
		h19.5v58.1l-1,1.7L103.6,136.1z M108.9,77.4H89.4v-3h19.5V77.4z M99.1,46c2.6,0,5,1.1,6.8,3.2c1.9,2.1,2.9,4.9,2.9,8v7.4H89.4v-0.6
		h0v-6.8C89.4,51.1,93.7,46,99.1,46z M108.9,67.9v3.3H89.4v-3.3H108.9z M96.3,151.8h5l-2.6,4.5L96.3,151.8z"/>
</g>
<path fill="none" stroke="#F1F1F2" stroke-width="6" stroke-miterlimit="10" d="M180.2,50.5c-7.7-10.6-61.7-39.7-78.5-43.6
	c-0.2,0-1.4-0.4-2.5-0.4c-1.1,0-2.5,0.4-2.6,0.4c-16.8,3.9-70.8,33-78.5,43.6c-2,2.8-6,26-5.9,49c0,23,3.9,46.2,5.9,49
	c7.7,10.6,61.7,39.7,78.5,43.6c0.2,0,1.5,0.4,2.6,0.4c1.1,0,2.3-0.4,2.5-0.4c16.8-3.9,70.8-33,78.5-43.6c2-2.8,6-26,5.9-49
	C186.2,76.5,182.2,53.3,180.2,50.5z"/>
</svg>
