<?xml version="1.0" encoding="utf-8"?>
<!-- Generator: Adobe Illustrator 18.1.0, SVG Export Plug-In . SVG Version: 6.00 Build 0)  -->
<!DOCTYPE svg PUBLIC "-//W3C//DTD SVG 1.1//EN" "http://www.w3.org/Graphics/SVG/1.1/DTD/svg11.dtd">
<svg version="1.1" id="Layer_1" xmlns="http://www.w3.org/2000/svg" xmlns:xlink="http://www.w3.org/1999/xlink" x="0px" y="0px"
	 viewBox="0 78.5 182 44" enable-background="new 0 78.5 182 44" xml:space="preserve">
<g>
	<polygon fill="#F1F1F2" points="16.9,93.7 16.9,107.8 19.1,111.7 21.4,107.8 21.4,93.7 	"/>
	<path fill="#F1F1F2" d="M21.4,92.2V94h-4.4v-1.7c0-1.4,1-2.5,2.2-2.5c0.6,0,1.2,0.3,1.6,0.7C21.1,90.9,21.4,91.5,21.4,92.2z"/>
	<path fill="#292F2E" d="M21.7,94.3L21.7,94.3l0-2c0-0.7-0.3-1.4-0.7-2c-0.5-0.5-1.1-0.8-1.8-0.8c-1.4,0-2.5,1.3-2.5,2.8v2.1h0v13.9
		h0l2.4,4.6l2.6-4.5h0V94.3z M17.7,109l0.5-0.5l0.4,0.4l0,0l0.5,0.5l0.5-0.4l0,0l0,0l0,0l0,0l0.2-0.2l0,0l0.2-0.2l0.5,0.5l-0.6,1
		h-1.7L17.7,109z M20,107.6l-0.8,0.8l-0.1,0.1l0,0l0,0l-0.9-0.9l-0.8,0.8l-0.1-0.3V96.8H21v11.3l-0.2,0.3L20,107.6z M21,96.2h-3.8
		v-0.6H21V96.2z M19.1,90.1c0.5,0,1,0.2,1.3,0.6c0.4,0.4,0.6,1,0.6,1.6v1.4h-3.8v-0.1h0v-1.3C17.3,91.1,18.1,90.1,19.1,90.1z
		 M21,94.4V95h-3.8v-0.6H21z M18.6,110.7h1l-0.5,0.9L18.6,110.7z"/>
</g>
<g>
	<path fill="#FFFFFF" d="M53.1,100.8h-5.6V86.6H49v12.7h4.1V100.8z"/>
	<path fill="#FFFFFF" d="M61.5,98.8c0,1.1-0.9,2-2,2h-2.5c-1.1,0-2-0.9-2-2V88.6c0-1.1,0.9-2,2-2h2.5c1.1,0,2,0.9,2,2V98.8z
		 M59.9,88.6c0-0.3-0.2-0.5-0.5-0.5h-2.5c-0.3,0-0.5,0.2-0.5,0.5v10.2c0,0.3,0.2,0.5,0.5,0.5h2.5c0.3,0,0.5-0.2,0.5-0.5V88.6z"/>
	<path fill="#FFFFFF" d="M70.3,100.8H69l-3.8-10.6v10.6h-1.5V86.6h1.7l3.4,9.6v-9.6h1.5V100.8z"/>
	<path fill="#FFFFFF" d="M79.2,98.8c0,1.1-0.9,2-2,2h-2.5c-1.1,0-2-0.9-2-2V88.6c0-1.1,0.9-2,2-2h2.5c1.1,0,2,0.9,2,2v2h-1.5v-2
		c0-0.3-0.2-0.5-0.5-0.5h-2.5c-0.3,0-0.5,0.2-0.5,0.5v10.2c0,0.3,0.2,0.5,0.5,0.5h2.5c0.3,0,0.5-0.2,0.5-0.5v-3.7h-1.8v-1.5h3.3
		V98.8z"/>
	<path fill="#FFFFFF" d="M91.1,88.1H87v4.4h3.1v1.5H87v6.8h-1.5V86.6h5.6V88.1z"/>
	<path fill="#FFFFFF" d="M99.5,98.8c0,1.1-0.9,2-2,2h-2.5c-1.1,0-2-0.9-2-2V88.6c0-1.1,0.9-2,2-2h2.5c1.1,0,2,0.9,2,2V98.8z
		 M98,88.6c0-0.3-0.2-0.5-0.5-0.5h-2.5c-0.3,0-0.5,0.2-0.5,0.5v10.2c0,0.3,0.2,0.5,0.5,0.5h2.5c0.3,0,0.5-0.2,0.5-0.5V88.6z"/>
	<path fill="#FFFFFF" d="M106.9,94.8l1.4,6.1h-1.6l-1.3-6h-2.1v6h-1.5V86.6h4.6c1.1,0,2,0.9,2,2v4.2
		C108.4,93.8,107.7,94.5,106.9,94.8z M106.8,88.6c0-0.3-0.2-0.5-0.5-0.5h-3.1v5.2h3.1c0.3,0,0.5-0.2,0.5-0.5V88.6z"/>
	<path fill="#FFFFFF" d="M119.6,100.8h-1.5V90l-2.7,9.8h-0.7l-2.6-9.8v10.8h-1.5V86.6h2.1l2.4,9l2.5-9h2.1V100.8z"/>
</g>
<g>
	<path fill="#BBBDBF" d="M51.1,109.7c0,0.6-0.5,1.1-1.1,1.1h-1.7v3h-0.8V106H50c0.6,0,1.1,0.5,1.1,1.1V109.7z M50.3,107.1
		c0-0.2-0.1-0.3-0.3-0.3h-1.7v3.1H50c0.2,0,0.3-0.1,0.3-0.3V107.1z"/>
	<path fill="#BBBDBF" d="M57.3,112.7c0,0.6-0.5,1.1-1.1,1.1h-1.4c-0.6,0-1.1-0.5-1.1-1.1V106h0.8v6.6c0,0.2,0.1,0.3,0.3,0.3h1.4
		c0.2,0,0.3-0.1,0.3-0.3V106h0.8V112.7z"/>
	<path fill="#BBBDBF" d="M63.7,112.7c0,0.6-0.5,1.1-1.1,1.1h-2.5V106h2.5c0.6,0,1.1,0.5,1.1,1.1v1.9c0,0.3-0.2,0.6-0.6,0.7
		c0.3,0.1,0.6,0.4,0.6,0.7V112.7z M62.9,107.1c0-0.2-0.1-0.3-0.3-0.3H61v2.4h1.7c0.2,0,0.3-0.1,0.3-0.3V107.1z M62.9,110.4
		c0-0.2-0.1-0.3-0.3-0.3H61v2.8h1.7c0.2,0,0.3-0.1,0.3-0.3V110.4z"/>
	<path fill="#BBBDBF" d="M69.6,113.8h-3V106h0.8v6.9h2.2V113.8z"/>
	<path fill="#BBBDBF" d="M73.1,113.8h-0.8V106h0.8V113.8z"/>
	<path fill="#BBBDBF" d="M78.7,111.6c0-0.2,0-0.3-0.1-0.4l-2.3-2.2c-0.2-0.2-0.4-0.6-0.4-1v-0.9c0-0.6,0.5-1.1,1.1-1.1h1.4
		c0.6,0,1.1,0.5,1.1,1.1v1.1h-0.8v-1.1c0-0.2-0.1-0.3-0.3-0.3H77c-0.2,0-0.3,0.1-0.3,0.3v0.9c0,0.1,0,0.3,0.1,0.4l2.3,2.2
		c0.2,0.2,0.4,0.6,0.4,1v1.1c0,0.6-0.5,1.1-1.1,1.1H77c-0.6,0-1.1-0.5-1.1-1.1v-1.1h0.8v1.1c0,0.2,0.1,0.3,0.3,0.3h1.4
		c0.2,0,0.3-0.1,0.3-0.3V111.6z"/>
	<path fill="#BBBDBF" d="M86,113.8h-0.8v-3.7h-1.9v3.7h-0.8V106h0.8v3.2h1.9V106H86V113.8z"/>
	<path fill="#BBBDBF" d="M95.5,112.5h-2.1l-0.3,1.2h-0.8l1.7-7.7h1l1.7,7.7h-0.8L95.5,112.5z M93.5,111.7h1.8l-0.9-4.4L93.5,111.7z"
		/>
	<path fill="#BBBDBF" d="M103.9,113.8h-0.8v-5.9l-1.5,5.3h-0.4l-1.4-5.3v5.9h-0.8V106h1.1l1.3,4.9l1.3-4.9h1.1V113.8z"/>
	<path fill="#BBBDBF" d="M109.6,112.5h-2.1l-0.3,1.2h-0.8l1.7-7.7h1l1.7,7.7h-0.8L109.6,112.5z M107.7,111.7h1.8l-0.9-4.4
		L107.7,111.7z"/>
	<path fill="#BBBDBF" d="M116.6,113.8h-3.7v-0.8l2.7-6.1H113V106h3.5v0.8l-2.7,6.1h2.8V113.8z"/>
	<path fill="#BBBDBF" d="M120,113.8h-0.8V106h0.8V113.8z"/>
	<path fill="#BBBDBF" d="M126.4,113.8h-0.7l-2.1-5.7v5.7h-0.8V106h0.9l1.8,5.2V106h0.8V113.8z"/>
	<path fill="#BBBDBF" d="M132.9,112.7c0,0.6-0.5,1.1-1.1,1.1h-1.4c-0.6,0-1.1-0.5-1.1-1.1v-5.5c0-0.6,0.5-1.1,1.1-1.1h1.4
		c0.6,0,1.1,0.5,1.1,1.1v1.1h-0.8v-1.1c0-0.2-0.1-0.3-0.3-0.3h-1.4c-0.2,0-0.3,0.1-0.3,0.3v5.5c0,0.2,0.1,0.3,0.3,0.3h1.4
		c0.2,0,0.3-0.1,0.3-0.3v-2h-1v-0.8h1.8V112.7z"/>
	<path fill="#BBBDBF" d="M142.4,111.6c0-0.2,0-0.3-0.1-0.4L140,109c-0.2-0.2-0.4-0.6-0.4-1v-0.9c0-0.6,0.5-1.1,1.1-1.1h1.4
		c0.6,0,1.1,0.5,1.1,1.1v1.1h-0.8v-1.1c0-0.2-0.1-0.3-0.3-0.3h-1.4c-0.2,0-0.3,0.1-0.3,0.3v0.9c0,0.1,0,0.3,0.1,0.4l2.3,2.2
		c0.2,0.2,0.4,0.6,0.4,1v1.1c0,0.6-0.5,1.1-1.1,1.1h-1.4c-0.6,0-1.1-0.5-1.1-1.1v-1.1h0.8v1.1c0,0.2,0.1,0.3,0.3,0.3h1.4
		c0.2,0,0.3-0.1,0.3-0.3V111.6z"/>
	<path fill="#BBBDBF" d="M149.4,106.9H148v6.9h-0.8v-6.9h-1.4V106h3.6V106.9z"/>
	<path fill="#BBBDBF" d="M155.6,112.7c0,0.6-0.5,1.1-1.1,1.1h-1.4c-0.6,0-1.1-0.5-1.1-1.1v-5.5c0-0.6,0.5-1.1,1.1-1.1h1.4
		c0.6,0,1.1,0.5,1.1,1.1V112.7z M154.8,107.1c0-0.2-0.1-0.3-0.3-0.3h-1.4c-0.2,0-0.3,0.1-0.3,0.3v5.5c0,0.2,0.1,0.3,0.3,0.3h1.4
		c0.2,0,0.3-0.1,0.3-0.3V107.1z"/>
	<path fill="#BBBDBF" d="M161.3,110.5l0.8,3.3h-0.9l-0.7-3.2h-1.2v3.2h-0.8V106h2.5c0.6,0,1.1,0.5,1.1,1.1v2.3
		C162,109.9,161.7,110.4,161.3,110.5z M161.2,107.1c0-0.2-0.1-0.3-0.3-0.3h-1.7v2.8h1.7c0.2,0,0.3-0.1,0.3-0.3V107.1z"/>
	<path fill="#BBBDBF" d="M165.7,113.8h-0.8V106h0.8V113.8z"/>
	<path fill="#BBBDBF" d="M171.7,113.8h-3V106h3v0.8h-2.2v2.4h1.7v0.8h-1.7v2.8h2.2V113.8z"/>
	<path fill="#BBBDBF" d="M177,111.6c0-0.2,0-0.3-0.1-0.4l-2.3-2.2c-0.2-0.2-0.4-0.6-0.4-1v-0.9c0-0.6,0.5-1.1,1.1-1.1h1.4
		c0.6,0,1.1,0.5,1.1,1.1v1.1H177v-1.1c0-0.2-0.1-0.3-0.3-0.3h-1.4c-0.2,0-0.3,0.1-0.3,0.3v0.9c0,0.1,0,0.3,0.1,0.4l2.3,2.2
		c0.2,0.2,0.4,0.6,0.4,1v1.1c0,0.6-0.5,1.1-1.1,1.1h-1.4c-0.6,0-1.1-0.5-1.1-1.1v-1.1h0.8v1.1c0,0.2,0.1,0.3,0.3,0.3h1.4
		c0.2,0,0.3-0.1,0.3-0.3V111.6z"/>
</g>
<path fill="none" stroke="#F1F1F2" stroke-width="2" stroke-miterlimit="10" d="M34.9,91c-1.5-2.1-12-7.7-15.2-8.5
	c0,0-0.3-0.1-0.5-0.1c-0.2,0-0.5,0.1-0.5,0.1C15.4,83.3,4.9,88.9,3.4,91C3,91.5,2.3,96,2.3,100.5c0,4.5,0.8,9,1.2,9.5
	c1.5,2.1,12,7.7,15.2,8.5c0,0,0.3,0.1,0.5,0.1c0.2,0,0.5-0.1,0.5-0.1c3.3-0.8,13.7-6.4,15.2-8.5c0.4-0.5,1.2-5.1,1.2-9.5
	C36,96,35.3,91.5,34.9,91z"/>
</svg>
