<?xml version="1.0" encoding="utf-8"?>
<!-- Generator: Adobe Illustrator 18.1.0, SVG Export Plug-In . SVG Version: 6.00 Build 0)  -->
<!DOCTYPE svg PUBLIC "-//W3C//DTD SVG 1.1//EN" "http://www.w3.org/Graphics/SVG/1.1/DTD/svg11.dtd">
<svg version="1.1" id="Layer_1" xmlns="http://www.w3.org/2000/svg" xmlns:xlink="http://www.w3.org/1999/xlink" x="0px" y="0px"
	 viewBox="0 0 99.7 92" enable-background="new 0 0 99.7 92" xml:space="preserve">
<g>
	<path fill="#D1D3D4" d="M9.1,58H2.8V41.9h1.7v14.4h4.6V58z"/>
	<path fill="#D1D3D4" d="M20.2,55.7c0,1.3-1,2.3-2.3,2.3H15c-1.3,0-2.3-1-2.3-2.3V44.2c0-1.3,1-2.3,2.3-2.3h2.9c1.3,0,2.3,1,2.3,2.3
		V55.7z M18.4,44.2c0-0.3-0.2-0.6-0.6-0.6H15c-0.3,0-0.6,0.2-0.6,0.6v11.5c0,0.3,0.2,0.6,0.6,0.6h2.9c0.3,0,0.6-0.2,0.6-0.6V44.2z"
		/>
	<path fill="#D1D3D4" d="M31.8,58h-1.4L26,46.1V58h-1.7V41.9h1.9L30,52.8V41.9h1.7V58z"/>
	<path fill="#D1D3D4" d="M43.4,55.7c0,1.3-1,2.3-2.3,2.3h-2.9c-1.3,0-2.3-1-2.3-2.3V44.2c0-1.3,1-2.3,2.3-2.3h2.9
		c1.3,0,2.3,1,2.3,2.3v2.3h-1.7v-2.3c0-0.3-0.2-0.6-0.6-0.6h-2.9c-0.3,0-0.6,0.2-0.6,0.6v11.5c0,0.3,0.2,0.6,0.6,0.6h2.9
		c0.3,0,0.6-0.2,0.6-0.6v-4.2h-2v-1.7h3.7V55.7z"/>
	<path fill="#D1D3D4" d="M60.1,43.7h-4.6v5h3.4v1.7h-3.4V58h-1.7V41.9h6.3V43.7z"/>
	<path fill="#D1D3D4" d="M71.1,55.7c0,1.3-1,2.3-2.3,2.3h-2.9c-1.3,0-2.3-1-2.3-2.3V44.2c0-1.3,1-2.3,2.3-2.3h2.9
		c1.3,0,2.3,1,2.3,2.3V55.7z M69.4,44.2c0-0.3-0.2-0.6-0.6-0.6h-2.9c-0.3,0-0.6,0.2-0.6,0.6v11.5c0,0.3,0.2,0.6,0.6,0.6h2.9
		c0.3,0,0.6-0.2,0.6-0.6V44.2z"/>
	<path fill="#D1D3D4" d="M81.1,51.2l1.6,6.8h-1.8l-1.5-6.7H77V58h-1.7V41.9h5.2c1.3,0,2.3,1,2.3,2.3V49C82.7,50.1,82,50.9,81.1,51.2
		z M81,44.2c0-0.3-0.2-0.6-0.6-0.6H77v5.9h3.4c0.3,0,0.6-0.2,0.6-0.6V44.2z"/>
	<path fill="#D1D3D4" d="M97,58h-1.7V45.8l-3,11.1h-0.7l-3-11.1V58h-1.7V41.9h2.3l2.7,10.2l2.8-10.2H97V58z"/>
	<path fill="#D1D3D4" d="M7.7,72c0-0.3-0.1-0.5-0.2-0.7l-4.2-4.1c-0.4-0.4-0.7-1.1-0.7-1.8v-1.6c0-1.1,0.9-2,2-2h2.5
		c1.1,0,2,0.9,2,2v2H7.7v-2c0-0.3-0.2-0.5-0.5-0.5H4.7c-0.3,0-0.5,0.2-0.5,0.5v1.6c0,0.3,0.1,0.5,0.2,0.7l4.2,4.1
		C9,70.6,9.3,71.2,9.3,72v2c0,1.1-0.9,2-2,2H4.7c-1.1,0-2-0.9-2-2v-2h1.5v2c0,0.3,0.2,0.5,0.5,0.5h2.5c0.3,0,0.5-0.2,0.5-0.5V72z"/>
	<path fill="#D1D3D4" d="M17.7,63.3h-2.5V76h-1.5V63.3H11v-1.5h6.6V63.3z"/>
	<path fill="#D1D3D4" d="M26.1,74c0,1.1-0.9,2-2,2h-2.5c-1.1,0-2-0.9-2-2V63.8c0-1.1,0.9-2,2-2H24c1.1,0,2,0.9,2,2V74z M24.5,63.8
		c0-0.3-0.2-0.5-0.5-0.5h-2.5c-0.3,0-0.5,0.2-0.5,0.5V74c0,0.3,0.2,0.5,0.5,0.5H24c0.3,0,0.5-0.2,0.5-0.5V63.8z"/>
	<path fill="#D1D3D4" d="M33.5,70L35,76h-1.6l-1.3-6h-2.1v6h-1.5V61.8h4.6c1.1,0,2,0.9,2,2V68C35,69,34.4,69.7,33.5,70z M33.4,63.8
		c0-0.3-0.2-0.5-0.5-0.5h-3.1v5.2h3.1c0.3,0,0.5-0.2,0.5-0.5V63.8z"/>
	<path fill="#D1D3D4" d="M43.9,61.8l-3.1,8.8V76h-1.5v-5.5l-3-8.8h1.6l2.2,7l2.2-7H43.9z"/>
	<path fill="#D1D3D4" d="M51.8,74c0,1.1-0.9,2-2,2h-4.6V61.8h4.6c1.1,0,2,0.9,2,2v3.4c0,0.6-0.4,1.1-1,1.3c0.6,0.2,1,0.7,1,1.3V74z
		 M50.2,63.8c0-0.3-0.2-0.5-0.5-0.5h-3.1v4.4h3.1c0.3,0,0.5-0.2,0.5-0.5V63.8z M50.2,69.8c0-0.3-0.2-0.5-0.5-0.5h-3.1v5.3h3.1
		c0.3,0,0.5-0.2,0.5-0.5V69.8z"/>
	<path fill="#D1D3D4" d="M60.7,74c0,1.1-0.9,2-2,2h-2.5c-1.1,0-2-0.9-2-2V61.8h1.5V74c0,0.3,0.2,0.5,0.5,0.5h2.5
		c0.3,0,0.5-0.2,0.5-0.5V61.8h1.5V74z"/>
	<path fill="#D1D3D4" d="M64.5,76h-1.5V61.8h1.5V76z"/>
	<path fill="#D1D3D4" d="M72.4,76h-5.6V61.8h1.5v12.7h4.1V76z"/>
	<path fill="#D1D3D4" d="M80.8,74c0,1.1-0.9,2-2,2h-4.6V61.8h4.6c1.1,0,2,0.9,2,2V74z M79.2,63.8c0-0.3-0.2-0.5-0.5-0.5h-3.1v11.2
		h3.1c0.3,0,0.5-0.2,0.5-0.5V63.8z"/>
	<path fill="#D1D3D4" d="M88.7,76H83V61.8h5.6v1.5h-4.1v4.4h3.1v1.5h-3.1v5.3h4.1V76z"/>
	<path fill="#D1D3D4" d="M95.6,70L97,76h-1.6l-1.3-6H92v6h-1.5V61.8H95c1.1,0,2,0.9,2,2V68C97,69,96.4,69.7,95.6,70z M95.5,63.8
		c0-0.3-0.2-0.5-0.5-0.5H92v5.2H95c0.3,0,0.5-0.2,0.5-0.5V63.8z"/>
</g>
<g>
	<path fill="#939598" d="M5.4,86.2C5.4,86.6,5,87,4.6,87H3.4v2.1H2.8v-5.5h1.8c0.4,0,0.8,0.4,0.8,0.8V86.2z M4.8,84.4
		c0-0.1-0.1-0.2-0.2-0.2H3.4v2.2h1.2c0.1,0,0.2-0.1,0.2-0.2V84.4z"/>
	<path fill="#939598" d="M9.8,88.3c0,0.4-0.4,0.8-0.8,0.8h-1c-0.4,0-0.8-0.4-0.8-0.8v-4.7h0.6v4.7c0,0.1,0.1,0.2,0.2,0.2h1
		c0.1,0,0.2-0.1,0.2-0.2v-4.7h0.6V88.3z"/>
	<path fill="#939598" d="M14.5,88.3c0,0.4-0.4,0.8-0.8,0.8h-1.8v-5.5h1.8c0.4,0,0.8,0.4,0.8,0.8v1.3c0,0.2-0.1,0.4-0.4,0.5
		c0.2,0.1,0.4,0.3,0.4,0.5V88.3z M13.9,84.4c0-0.1-0.1-0.2-0.2-0.2h-1.2v1.7h1.2c0.1,0,0.2-0.1,0.2-0.2V84.4z M13.9,86.7
		c0-0.1-0.1-0.2-0.2-0.2h-1.2v2h1.2c0.1,0,0.2-0.1,0.2-0.2V86.7z"/>
	<path fill="#939598" d="M18.7,89.1h-2.2v-5.5h0.6v4.9h1.6V89.1z"/>
	<path fill="#939598" d="M21.2,89.1h-0.6v-5.5h0.6V89.1z"/>
	<path fill="#939598" d="M25.3,87.5c0-0.1,0-0.2-0.1-0.3l-1.6-1.6c-0.2-0.2-0.3-0.4-0.3-0.7v-0.6c0-0.4,0.4-0.8,0.8-0.8h1
		c0.4,0,0.8,0.4,0.8,0.8v0.8h-0.6v-0.8c0-0.1-0.1-0.2-0.2-0.2h-1c-0.1,0-0.2,0.1-0.2,0.2V85c0,0.1,0,0.2,0.1,0.2l1.6,1.6
		c0.2,0.2,0.3,0.4,0.3,0.7v0.8c0,0.4-0.4,0.8-0.8,0.8h-1c-0.4,0-0.8-0.4-0.8-0.8v-0.8h0.6v0.8c0,0.1,0.1,0.2,0.2,0.2h1
		c0.1,0,0.2-0.1,0.2-0.2V87.5z"/>
	<path fill="#939598" d="M30.6,89.1H30v-2.6h-1.4v2.6H28v-5.5h0.6v2.3H30v-2.3h0.6V89.1z"/>
	<path fill="#939598" d="M37.5,88.2h-1.5l-0.2,0.9h-0.6l1.2-5.5h0.7l1.2,5.5h-0.6L37.5,88.2z M36.1,87.6h1.3l-0.6-3.1L36.1,87.6z"/>
	<path fill="#939598" d="M43.5,89.1h-0.6v-4.2l-1,3.8h-0.3l-1-3.8v4.2H40v-5.5h0.8l0.9,3.5l1-3.5h0.8V89.1z"/>
	<path fill="#939598" d="M47.6,88.2h-1.5l-0.2,0.9h-0.6l1.2-5.5h0.7l1.2,5.5h-0.6L47.6,88.2z M46.2,87.6h1.3l-0.6-3.1L46.2,87.6z"/>
	<path fill="#939598" d="M52.6,89.1H50v-0.6l1.9-4.3h-1.8v-0.6h2.5v0.6l-1.9,4.3h2V89.1z"/>
	<path fill="#939598" d="M55.1,89.1h-0.6v-5.5h0.6V89.1z"/>
	<path fill="#939598" d="M59.8,89.1h-0.5L57.8,85v4.1h-0.6v-5.5h0.6l1.3,3.7v-3.7h0.6V89.1z"/>
	<path fill="#939598" d="M64.4,88.3c0,0.4-0.4,0.8-0.8,0.8h-1c-0.4,0-0.8-0.4-0.8-0.8v-3.9c0-0.4,0.4-0.8,0.8-0.8h1
		c0.4,0,0.8,0.4,0.8,0.8v0.8h-0.6v-0.8c0-0.1-0.1-0.2-0.2-0.2h-1c-0.1,0-0.2,0.1-0.2,0.2v3.9c0,0.1,0.1,0.2,0.2,0.2h1
		c0.1,0,0.2-0.1,0.2-0.2v-1.4h-0.7v-0.6h1.3V88.3z"/>
	<path fill="#939598" d="M71.3,87.5c0-0.1,0-0.2-0.1-0.3l-1.6-1.6c-0.2-0.2-0.3-0.4-0.3-0.7v-0.6c0-0.4,0.4-0.8,0.8-0.8h1
		c0.4,0,0.8,0.4,0.8,0.8v0.8h-0.6v-0.8c0-0.1-0.1-0.2-0.2-0.2h-1c-0.1,0-0.2,0.1-0.2,0.2V85c0,0.1,0,0.2,0.1,0.2l1.6,1.6
		c0.2,0.2,0.3,0.4,0.3,0.7v0.8c0,0.4-0.4,0.8-0.8,0.8h-1c-0.4,0-0.8-0.4-0.8-0.8v-0.8h0.6v0.8c0,0.1,0.1,0.2,0.2,0.2h1
		c0.1,0,0.2-0.1,0.2-0.2V87.5z"/>
	<path fill="#939598" d="M76.3,84.2h-1v4.9h-0.6v-4.9h-1v-0.6h2.5V84.2z"/>
	<path fill="#939598" d="M80.8,88.3c0,0.4-0.4,0.8-0.8,0.8h-1c-0.4,0-0.8-0.4-0.8-0.8v-3.9c0-0.4,0.4-0.8,0.8-0.8h1
		c0.4,0,0.8,0.4,0.8,0.8V88.3z M80.2,84.4c0-0.1-0.1-0.2-0.2-0.2h-1c-0.1,0-0.2,0.1-0.2,0.2v3.9c0,0.1,0.1,0.2,0.2,0.2h1
		c0.1,0,0.2-0.1,0.2-0.2V84.4z"/>
	<path fill="#939598" d="M84.9,86.8l0.6,2.3h-0.6l-0.5-2.3h-0.8v2.3h-0.6v-5.5h1.8c0.4,0,0.8,0.4,0.8,0.8V86
		C85.5,86.4,85.2,86.7,84.9,86.8z M84.9,84.4c0-0.1-0.1-0.2-0.2-0.2h-1.2v2h1.2c0.1,0,0.2-0.1,0.2-0.2V84.4z"/>
	<path fill="#939598" d="M88.1,89.1h-0.6v-5.5h0.6V89.1z"/>
	<path fill="#939598" d="M92.4,89.1h-2.2v-5.5h2.2v0.6h-1.6v1.7H92v0.6h-1.2v2h1.6V89.1z"/>
	<path fill="#939598" d="M96.3,87.5c0-0.1,0-0.2-0.1-0.3l-1.6-1.6c-0.2-0.2-0.3-0.4-0.3-0.7v-0.6c0-0.4,0.4-0.8,0.8-0.8h1
		c0.4,0,0.8,0.4,0.8,0.8v0.8h-0.6v-0.8c0-0.1-0.1-0.2-0.2-0.2h-1c-0.1,0-0.2,0.1-0.2,0.2V85c0,0.1,0,0.2,0.1,0.2l1.6,1.6
		c0.2,0.2,0.3,0.4,0.3,0.7v0.8c0,0.4-0.4,0.8-0.8,0.8h-1c-0.4,0-0.8-0.4-0.8-0.8v-0.8h0.6v0.8c0,0.1,0.1,0.2,0.2,0.2h1
		c0.1,0,0.2-0.1,0.2-0.2V87.5z"/>
</g>
<g>
	<polygon fill="#F1F2F2" points="47.6,13.1 47.6,27.1 49.8,31 52.1,27.1 52.1,13.1 	"/>
	<path fill="#F1F2F2" d="M52.1,11.6v1.7h-4.4v-1.7c0-1.4,1-2.5,2.2-2.5c0.6,0,1.2,0.3,1.6,0.7C51.8,10.3,52.1,10.9,52.1,11.6z"/>
	<path fill="#292F2F" d="M52.4,13.6L52.4,13.6l0-2c0-0.7-0.3-1.4-0.7-2c-0.5-0.5-1.1-0.8-1.8-0.8c-1.4,0-2.5,1.3-2.5,2.8v2.1h0v13.9
		h0l2.4,4.6l2.6-4.5h0V13.6z M48.4,28.3l0.5-0.5l0.4,0.4l0,0l0.5,0.5l0.5-0.4l0,0l0,0l0,0l0,0l0.2-0.2l0,0l0.2-0.2l0.5,0.5l-0.6,1
		H49L48.4,28.3z M50.7,26.9l-0.8,0.8l-0.1,0.1l0,0l0,0l-0.9-0.9l-0.8,0.8L48,27.5V16.2h3.8v11.3l-0.2,0.3L50.7,26.9z M51.7,15.6H48
		V15h3.8V15.6z M49.8,9.5c0.5,0,1,0.2,1.3,0.6c0.4,0.4,0.6,1,0.6,1.6v1.4H48V13h0v-1.3C48,10.4,48.8,9.5,49.8,9.5z M51.7,13.7v0.6
		H48v-0.6H51.7z M49.3,30h1l-0.5,0.9L49.3,30z"/>
</g>
<path fill="none" stroke="#F1F2F2" stroke-width="2" stroke-miterlimit="10" d="M65.6,10.3c-1.5-2.1-12-7.7-15.2-8.5
	c0,0-0.3-0.1-0.5-0.1s-0.5,0.1-0.5,0.1c-3.3,0.8-13.7,6.4-15.2,8.5c-0.4,0.5-1.2,5.1-1.2,9.5c0,4.5,0.8,9,1.2,9.5
	c1.5,2.1,12,7.7,15.2,8.5c0,0,0.3,0.1,0.5,0.1s0.5-0.1,0.5-0.1c3.3-0.8,13.7-6.4,15.2-8.5c0.4-0.5,1.2-5.1,1.2-9.5
	C66.7,15.4,66,10.9,65.6,10.3z"/>
</svg>
