<?xml version="1.0" encoding="utf-8"?>
<!-- Generator: Adobe Illustrator 18.1.0, SVG Export Plug-In . SVG Version: 6.00 Build 0)  -->
<!DOCTYPE svg PUBLIC "-//W3C//DTD SVG 1.1//EN" "http://www.w3.org/Graphics/SVG/1.1/DTD/svg11.dtd">
<svg version="1.1" id="hero_image" xmlns="http://www.w3.org/2000/svg" xmlns:xlink="http://www.w3.org/1999/xlink" x="0px" y="0px"
	 viewBox="0 24 200 156" enable-background="new 0 24 200 156" xml:space="preserve">
<g id="_x36_8BFnm_1_">
	<g>
		<rect x="7.3" y="47.5" fill="#9D9BA0" width="186.1" height="14.9"/>
		<path fill="#E0E2E5" d="M6.6,142.8c0-36.5,0-72.9,0-109.4c0.4-1.2,1.1-2,2.3-2.3c60.9,0,121.9,0,182.8,0c1.2,0.4,2,1.1,2.3,2.3
			c0,36.5,0,72.9,0,109.4c-0.6,0.1-1-0.1-1.3-0.6c-1.3-2-1-4.3-1-6.5c0-26.9,0-53.9,0-80.8c0-5.8-0.1-5.9-5.9-5.9c-57,0-114,0-171,0
			C9.1,49.1,9,49.2,9,55c0,26.9,0,53.9,0,80.8c0,2.2,0.3,4.5-1,6.5C7.6,142.7,7.2,142.9,6.6,142.8z"/>
		<path fill="#DFE1E4" d="M194.1,167.8c0,2.3,0,4.7,0,7c-0.4,1.2-1.1,2-2.3,2.3c-60.9,0-121.9,0-182.8,0c-1.2-0.4-2-1.1-2.3-2.3
			c0-1.8,0-3.6,0-5.5c0.4-0.3,0.9-0.5,1.4-0.6c2.7,0.4,5.4,0.6,8.1,0.6c55.9,0,111.9,0,167.8,0c3,0,6-0.1,8.6-1.8
			C193.2,167.5,193.7,167.6,194.1,167.8z"/>
		<path fill="#E2E4E6" d="M7.5,169.4c-0.3,0-0.6,0-0.8,0c0-8.9,0-17.7,0-26.6c0.3,0,0.6,0,0.9-0.1c0.2,0.2,0.4,0.4,0.5,0.5
			c1.2,2,0.9,4.2,0.9,6.4c0,4.9,0.1,9.8,0,14.7C8.9,166.2,9,168,7.5,169.4z"/>
		<path fill="#E2E4E6" d="M194.1,167.8c-0.2,0-0.5,0-0.8,0c-1-0.8-1.4-1.9-1.4-3.1c-0.2-6.6-0.4-13.1,0.1-19.7
			c0-0.6,0.3-1.2,0.7-1.8c0.2-0.2,0.4-0.4,0.5-0.5c0.3,0,0.6,0,0.9,0.1C194.1,151.2,194.1,159.5,194.1,167.8z"/>
		<path fill="#F9FAFA" d="M194.1,33.5c-0.8-0.8-1.6-1.6-2.3-2.3C193.7,30.7,194.5,31.5,194.1,33.5z"/>
		<path fill="#F9FAFA" d="M9,31.1c-0.8,0.8-1.6,1.6-2.3,2.3C6.3,31.5,7,30.7,9,31.1z"/>
		<path fill="#F9FAFA" d="M6.6,174.9c0.8,0.8,1.6,1.6,2.3,2.3C7,177.6,6.3,176.8,6.6,174.9z"/>
		<path fill="#F9FAFA" d="M191.8,177.2c0.8-0.8,1.6-1.6,2.3-2.3C194.5,176.8,193.7,177.6,191.8,177.2z"/>
		<path fill="#FEFEFE" d="M175.8,57.5c-2.7,0-5.5,0-8.2,0c-0.6,0-0.7-0.2-0.7-1.5c0-0.6,0.1-0.9,0.4-0.9c0.1,0,0.1,0,0.2,0
			c5.5,0,11,0,16.4,0c0.4,0,0.6,0,0.6,1.1c0,1-0.2,1.3-0.6,1.3C181.3,57.5,178.5,57.5,175.8,57.5z"/>
		<path fill="#FEFEFE" d="M150.6,57.5c-2.7,0-5.5,0-8.2,0c-0.6,0-0.7-0.2-0.7-1.5c0-0.6,0.1-0.9,0.4-0.9c0.1,0,0.1,0,0.2,0
			c5.5,0,11,0,16.4,0c0.4,0,0.6,0,0.6,1.1c0,1-0.2,1.3-0.6,1.3C156.1,57.5,153.3,57.5,150.6,57.5z"/>
		<path fill="#FEFEFE" d="M125.4,57.5c-2.7,0-5.5,0-8.2,0c-0.6,0-0.7-0.2-0.7-1.5c0-0.6,0.1-0.9,0.4-0.9c0.1,0,0.1,0,0.2,0
			c5.5,0,11,0,16.4,0c0.4,0,0.6,0,0.6,1.1c0,1-0.2,1.3-0.6,1.3C130.9,57.5,128.2,57.5,125.4,57.5z"/>
		<path fill="#FEFEFE" d="M100.3,57.5c-2.7,0-5.5,0-8.2,0c-0.6,0-0.7-0.2-0.7-1.5c0-0.6,0.1-0.9,0.4-0.9c0.1,0,0.1,0,0.2,0
			c5.5,0,11,0,16.4,0c0.4,0,0.6,0,0.6,1.1c0,1-0.2,1.3-0.6,1.3C105.8,57.5,103,57.5,100.3,57.5z"/>
		<path fill="#FEFEFE" d="M28.4,57.9c-4.1,0-8.1,0-12.2,0c-0.9,0-1-0.2-1-2c0-0.9,0.2-1.3,0.6-1.2c0.1,0,0.2,0,0.3,0
			c8.2,0,16.3,0,24.5,0c0.5,0,0.9,0,0.9,1.5c0,1.4-0.2,1.8-0.9,1.8C36.6,57.9,32.5,57.9,28.4,57.9z"/>
		<path fill="#FEFEFE" d="M106.3,43.6c-21.6,0-43.2,0-64.8,0c-4.9,0-5.4-0.6-5.2-5.3c0.1-2.3,1.1-3.3,3.4-3.2c0.5,0,1,0,1.6,0
			c43.3,0,86.7,0,130,0c2.9,0,5,0.1,5,4c0,3.6-1.3,4.7-4.8,4.7C149.7,43.6,128,43.6,106.3,43.6z"/>
		<path fill="#FBFBFC" d="M184.9,37.2c1.5-0.3,2.6,0.2,2.5,1.6c-0.1,1.4-1,2.4-2.6,2.4c-1.6,0-2.5-1-2.6-2.4
			C182.1,37,183.6,37,184.9,37.2z"/>
		<path fill="#F95F61" d="M16,39.3c-0.2,1.2-0.8,1.9-2,1.9c-1.1-0.1-1.9-0.8-1.8-2c0.1-1,0.7-1.6,1.7-1.7
			C15.1,37.4,15.7,38.1,16,39.3z"/>
		<path fill="#F9B25F" d="M22.9,39.1c0,1.2-0.7,2-1.9,2c-1,0-1.7-0.6-1.8-1.7c-0.1-1.3,0.6-2,1.8-2C22.1,37.4,22.7,38.1,22.9,39.1z"
			/>
		<path fill="#71B75B" d="M30,39.1c0,1.2-0.7,2-1.8,2c-1.2,0-1.9-0.7-1.9-1.9c0-1,0.6-1.7,1.6-1.8C29.1,37.3,29.7,38,30,39.1z"/>
		<rect x="6.5" y="129.5" fill="#E0E2E5" width="2.4" height="42"/>
		<rect x="191.7" y="129.5" fill="#E0E2E5" width="2.4" height="42"/>
	</g>
</g>
</svg>
