<?xml version="1.0" encoding="utf-8"?>
<!-- Generator: Adobe Illustrator 17.1.0, SVG Export Plug-In . SVG Version: 6.00 Build 0)  -->
<!DOCTYPE svg PUBLIC "-//W3C//DTD SVG 1.1//EN" "http://www.w3.org/Graphics/SVG/1.1/DTD/svg11.dtd">
<svg version="1.1" id="Layer_1" xmlns="http://www.w3.org/2000/svg" xmlns:xlink="http://www.w3.org/1999/xlink" x="0px" y="0px"
	 viewBox="0 0 256 206" enable-background="new 0 0 256 206" xml:space="preserve">
<g id="XCWJrF_1_">
	<g>
		<path fill="#FEFEFE" d="M9,187.5c0-52,0-104,0-156c80,0,160,0,240,0c0,51.667,0,103.333,0,155
			c-3.528,3.002-7.706,3.053-12.076,3.049c-72.142-0.07-144.285-0.054-216.427-0.037C16.532,189.513,12.543,189.831,9,187.5z
			 M202.442,102.498c9.327,0,18.654-0.05,27.98,0.035c2.381,0.022,3.64-0.425,3.625-3.245c-0.099-18.153-0.096-36.307-0.001-54.461
			c0.014-2.693-0.991-3.377-3.508-3.366c-18.653,0.076-37.307,0.095-55.96-0.016c-2.911-0.017-3.641,1.022-3.627,3.766
			c0.096,17.82,0.123,35.642-0.019,53.461c-0.025,3.172,1.059,3.938,4.03,3.886C184.12,102.397,193.282,102.499,202.442,102.498z
			 M129.608,41.501c-9.327,0-18.655,0.092-27.979-0.055c-2.852-0.045-3.695,0.912-3.679,3.716
			c0.103,17.987,0.096,35.975,0.006,53.962c-0.013,2.632,0.872,3.43,3.455,3.418c18.653-0.083,37.307-0.095,55.96,0.01
			c2.846,0.016,3.696-0.907,3.68-3.713c-0.103-17.82-0.12-35.642,0.013-53.462c0.023-3.097-0.93-3.999-3.977-3.94
			C147.93,41.613,138.768,41.501,129.608,41.501z M57.496,41.5c-8.994,0-17.99,0.132-26.979-0.069
			c-3.335-0.074-4.639,0.673-4.6,4.342c0.187,17.486,0.187,34.975,0,52.461c-0.04,3.681,1.29,4.358,4.608,4.332
			c17.986-0.141,35.974-0.142,53.96,0.001c3.329,0.026,4.638-0.672,4.599-4.341c-0.187-17.486-0.187-34.975,0-52.461
			c0.04-3.681-1.286-4.406-4.609-4.333C75.486,41.631,66.489,41.5,57.496,41.5z M129.034,166.498c9.466,0,18.932,0.01,28.398-0.009
			c1.622-0.003,3.428,0.313,3.55-2.271c0.133-2.83-1.713-2.72-3.615-2.719c-18.6,0.006-37.2-0.001-55.8,0.013
			c-1.622,0.001-3.428-0.313-3.55,2.271c-0.133,2.83,1.713,2.721,3.615,2.719C110.766,166.493,119.9,166.498,129.034,166.498z
			 M57.479,162.501c-9.134,0-18.268-0.03-27.402,0.028c-1.655,0.011-3.889-0.735-4.044,2.243c-0.172,3.288,2.191,2.711,4.087,2.714
			c18.268,0.023,36.536,0.03,54.804-0.013c1.654-0.004,3.889,0.734,4.044-2.244c0.172-3.288-2.191-2.706-4.087-2.713
			C75.747,162.483,66.613,162.501,57.479,162.501z M202.515,166.499c9.134,0,18.268,0.031,27.401-0.029
			c1.652-0.011,3.89,0.743,4.05-2.236c0.177-3.284-2.179-2.719-4.079-2.721c-18.268-0.022-36.536-0.029-54.803,0.014
			c-1.653,0.004-3.889-0.736-4.05,2.239c-0.178,3.285,2.179,2.713,4.079,2.719C184.247,166.516,193.381,166.499,202.515,166.499z
			 M129.546,108.501c-9.134,0-18.268-0.02-27.402,0.016c-1.882,0.007-4.262-0.607-4.113,2.687c0.134,2.974,2.356,2.267,4.021,2.271
			c18.268,0.04,36.536,0.035,54.804,0.009c1.882-0.003,4.262,0.606,4.113-2.687c-0.134-2.974-2.355-2.26-4.021-2.27
			C147.814,108.472,138.68,108.501,129.546,108.501z M202.43,113.499c9.134,0,18.268,0.022,27.402-0.018
			c1.869-0.008,4.264,0.638,4.139-2.66c-0.113-2.969-2.321-2.294-3.998-2.297c-18.268-0.037-36.536-0.034-54.804-0.006
			c-1.869,0.003-4.264-0.637-4.139,2.661c0.113,2.969,2.32,2.287,3.998,2.297C184.161,113.525,193.296,113.499,202.43,113.499z
			 M57.472,109.501c-9.134,0-18.268-0.03-27.402,0.027c-1.658,0.01-3.888-0.726-4.038,2.251c-0.165,3.29,2.203,2.703,4.094,2.706
			c18.268,0.024,36.536,0.03,54.804-0.012c1.658-0.004,3.888,0.725,4.038-2.252c0.165-3.29-2.203-2.699-4.094-2.705
			C75.74,109.483,66.606,109.501,57.472,109.501z M129.554,117.501c-9.134,0-18.268-0.02-27.402,0.017
			c-1.878,0.008-4.262-0.617-4.121,2.678c0.127,2.972,2.344,2.276,4.014,2.28c18.268,0.039,36.536,0.035,54.804,0.008
			c1.878-0.003,4.262,0.617,4.121-2.679c-0.127-2.972-2.344-2.269-4.014-2.279C147.822,117.473,138.688,117.501,129.554,117.501z
			 M202.25,122.499c9.3,0,18.6,0.01,27.9-0.009c1.773-0.004,3.834,0.408,3.835-2.489c0.001-2.897-2.06-2.49-3.833-2.491
			c-18.434-0.014-36.868-0.014-55.302,0c-1.773,0.001-3.834-0.409-3.835,2.489c-0.001,2.898,2.06,2.487,3.833,2.491
			C183.982,122.51,193.116,122.499,202.25,122.499z M57.166,123.499c9.3,0,18.6,0.017,27.9-0.016
			c1.726-0.006,3.848,0.536,3.917-2.397c0.067-2.88-1.929-2.58-3.745-2.58c-18.434-0.007-36.868-0.014-55.302,0.01
			c-1.726,0.002-3.874-0.534-3.909,2.398c-0.039,3.306,2.408,2.551,4.236,2.562C39.23,123.528,48.198,123.499,57.166,123.499z
			 M57.02,158.498c9.466,0,18.932,0.011,28.398-0.01c1.613-0.004,3.433,0.336,3.563-2.255c0.142-2.822-1.686-2.735-3.6-2.735
			c-18.6,0.008-37.2-0.001-55.8,0.015c-1.613,0.001-3.433-0.335-3.563,2.256c-0.142,2.822,1.686,2.737,3.599,2.735
			C38.752,158.492,47.886,158.498,57.02,158.498z M202.02,157.498c9.466,0,18.932,0.011,28.398-0.01
			c1.613-0.004,3.433,0.335,3.563-2.255c0.142-2.822-1.686-2.735-3.6-2.735c-18.6,0.008-37.2-0.001-55.8,0.015
			c-1.613,0.001-3.433-0.335-3.563,2.256c-0.142,2.822,1.686,2.737,3.6,2.735C183.752,157.492,192.886,157.498,202.02,157.498z
			 M129.528,157.499c9.134,0,18.268,0.03,27.402-0.027c1.658-0.01,3.888,0.726,4.038-2.251c0.165-3.29-2.203-2.703-4.094-2.706
			c-18.268-0.024-36.536-0.03-54.804,0.012c-1.657,0.004-3.888-0.725-4.038,2.252c-0.165,3.29,2.203,2.698,4.094,2.705
			C111.26,157.518,120.394,157.499,129.528,157.499z M129.493,143.501c-9.134,0-18.268-0.032-27.402,0.029
			c-1.649,0.011-3.891-0.753-4.057,2.228c-0.183,3.279,2.166,2.727,4.071,2.729c18.268,0.021,36.536,0.029,54.804-0.016
			c1.648-0.004,3.891,0.752,4.057-2.229c0.183-3.279-2.166-2.723-4.072-2.729C147.761,143.485,138.627,143.501,129.493,143.501z
			 M202.43,148.499c9.134,0,18.268,0.022,27.402-0.018c1.869-0.008,4.264,0.638,4.139-2.66c-0.113-2.969-2.321-2.294-3.998-2.297
			c-18.268-0.037-36.536-0.034-54.804-0.006c-1.869,0.003-4.264-0.637-4.139,2.661c0.113,2.969,2.321,2.287,3.998,2.297
			C184.162,148.525,193.296,148.499,202.43,148.499z M57.449,144.503c-9.3,0-18.6-0.008-27.9,0.008
			c-1.635,0.003-3.422-0.284-3.532,2.291c-0.121,2.839,1.747,2.7,3.635,2.699c18.6-0.004,37.2,0.001,55.8-0.011
			c1.634-0.001,3.422,0.284,3.532-2.292c0.121-2.839-1.747-2.7-3.635-2.699C76.049,144.505,66.749,144.502,57.449,144.503z
			 M52.541,132.497c7.635,0,15.269,0.01,22.903-0.008c1.628-0.004,3.422,0.297,3.538-2.28c0.127-2.831-1.725-2.711-3.621-2.71
			c-15.269,0.006-30.538-0.002-45.807,0.012c-1.628,0.001-3.422-0.296-3.538,2.281c-0.127,2.831,1.725,2.712,3.621,2.71
			C37.272,132.493,44.907,132.498,52.541,132.497z M197.483,131.498c7.635,0,15.269-0.007,22.904,0.005
			c1.915,0.003,3.737,0.081,3.595-2.736c-0.13-2.589-1.949-2.252-3.561-2.254c-15.269-0.017-30.538-0.006-45.807-0.016
			c-1.915-0.001-3.737-0.081-3.595,2.736c0.13,2.589,1.949,2.249,3.561,2.254C182.214,131.511,189.849,131.498,197.483,131.498z
			 M124.49,131.498c7.635,0,15.269-0.008,22.904,0.006c1.92,0.004,3.733,0.068,3.587-2.744c-0.134-2.592-1.959-2.245-3.567-2.247
			c-15.269-0.018-30.538-0.006-45.807-0.017c-1.92-0.001-3.732-0.068-3.587,2.743c0.134,2.592,1.959,2.241,3.567,2.247
			C109.221,131.512,116.856,131.498,124.49,131.498z M114.464,175.494c4.139,0,8.278-0.034,12.416,0.015
			c1.919,0.023,3.204-0.385,3.106-2.726c-0.09-2.154-1.443-2.282-3.04-2.281c-8.609,0.007-17.218,0.023-25.826-0.012
			c-1.918-0.008-3.204,0.385-3.106,2.726c0.09,2.154,1.442,2.285,3.04,2.281C105.524,175.487,109.994,175.494,114.464,175.494z
			 M186.933,175.494c4.304,0,8.609-0.029,12.913,0.013c1.892,0.019,3.227-0.337,3.141-2.694c-0.078-2.13-1.38-2.317-3.007-2.315
			c-8.609,0.014-17.218,0.024-25.826-0.007c-1.89-0.007-3.229,0.329-3.141,2.69c0.079,2.13,1.383,2.324,3.007,2.318
			C178.324,175.482,182.629,175.494,186.933,175.494z M41.347,176.495c4.138,0,8.276-0.022,12.414,0.01
			c1.827,0.014,3.287-0.199,3.229-2.603c-0.05-2.065-1.238-2.41-2.924-2.405c-8.441,0.023-16.883,0.028-25.324,0.003
			c-1.81-0.005-2.756,0.637-2.729,2.597c0.028,2.069,1.235,2.419,2.921,2.407C33.071,176.473,37.209,176.493,41.347,176.495z"/>
		<path fill="#E0E2E5" d="M249,31.5c-80,0-160,0-240,0c0-6.322,0.065-12.645-0.045-18.966c-0.028-1.626,0.162-2.454,2.009-2.056
			C11.6,10.615,12.29,10.5,12.956,10.5c77.363,0,154.726,0.031,232.088-0.101c3.494-0.006,4.253,0.769,4.049,4.136
			C248.752,20.172,249,25.843,249,31.5z M136.439,15.5c-27.974,0-55.948,0.059-83.921-0.066c-4.021-0.018-5.622,1.126-5.642,5.377
			c-0.02,4.338,1.366,5.777,5.763,5.767C108.586,26.46,164.534,26.5,220.482,26.5c0.666,0,1.332-0.015,1.998-0.016
			c2.2-0.003,3.235-1.055,3.532-3.292c0.848-6.4-0.189-7.689-6.65-7.69C191.72,15.497,164.079,15.499,136.439,15.5z M240.937,20.111
			c-0.435-2.303-1.707-2.29-3.677-1.989c-1.674,0.256-4.044-1.035-4.04,1.876c0.003,2.092,1.76,3.974,3.758,4.015
			C239.029,24.054,240.222,22.034,240.937,20.111z M27.191,18.534c-1.19,0.374-2.256,1.063-2.067,2.695
			c0.152,1.306,1.03,2.163,2.315,2.118c1.622-0.058,2.173-1.492,2.267-2.757C29.807,19.234,28.669,18.679,27.191,18.534z
			 M18.312,18.574c-1.396,0.179-2.252,1.04-2.25,2.617c0.001,1.122,0.647,2.046,1.705,2.092c1.499,0.065,2.638-1.12,2.777-2.376
			C20.636,20.075,20.061,18.552,18.312,18.574z M35.918,23.384c1.33-0.428,2.614-1.188,2.585-2.592
			c-0.02-0.973-0.587-2.384-2.179-2.212c-1.318,0.142-2.123,0.947-2.25,2.264C33.946,22.169,34.586,23.036,35.918,23.384z"/>
		<path fill="#E0E2E5" d="M9,187.5c3.543,2.331,7.532,2.013,11.497,2.012c72.142-0.017,144.285-0.033,216.427,0.037
			c4.37,0.004,8.548-0.047,12.076-3.049c0,3.66,1.425,8.72-0.404,10.582c-1.798,1.83-6.901,0.418-10.554,0.418
			c-74.524,0.001-149.048-0.057-223.571,0.136c-4.736,0.012-6.411-0.978-5.514-5.652C9.234,190.539,9,188.997,9,187.5z"/>
		<path fill="#9D9BA0" d="M202.442,102.499c-9.16,0.001-18.322-0.102-27.479,0.059c-2.971,0.052-4.056-0.714-4.03-3.886
			c0.142-17.819,0.116-35.641,0.019-53.461c-0.015-2.743,0.716-3.783,3.627-3.766c18.653,0.11,37.307,0.092,55.96,0.016
			c2.518-0.01,3.522,0.673,3.508,3.366c-0.095,18.153-0.098,36.307,0.001,54.461c0.015,2.819-1.244,3.266-3.625,3.245
			C221.096,102.448,211.769,102.498,202.442,102.499z"/>
		<path fill="#9D9BA0" d="M129.608,41.501c9.16,0,18.323,0.112,27.479-0.064c3.048-0.059,4,0.843,3.977,3.94
			c-0.134,17.82-0.116,35.641-0.013,53.462c0.016,2.806-0.833,3.729-3.68,3.713c-18.653-0.105-37.307-0.093-55.96-0.01
			c-2.584,0.012-3.469-0.787-3.455-3.418c0.09-17.987,0.096-35.975-0.006-53.962c-0.016-2.805,0.827-3.761,3.679-3.716
			C110.953,41.594,120.281,41.501,129.608,41.501z"/>
		<path fill="#9D9BA0" d="M57.496,41.5c8.994,0,17.99,0.13,26.979-0.068c3.323-0.073,4.648,0.652,4.609,4.333
			c-0.188,17.486-0.187,34.975,0,52.461c0.039,3.669-1.27,4.368-4.599,4.341c-17.986-0.143-35.974-0.142-53.96-0.001
			c-3.317,0.026-4.647-0.651-4.608-4.332c0.188-17.486,0.187-34.975,0-52.461c-0.039-3.669,1.265-4.417,4.6-4.342
			C39.506,41.632,48.502,41.5,57.496,41.5z"/>
		<path fill="#C3C0C6" d="M129.034,166.498c-9.134,0-18.268-0.005-27.402,0.004c-1.902,0.002-3.748,0.111-3.615-2.719
			c0.122-2.584,1.927-2.27,3.55-2.271c18.6-0.014,37.2-0.007,55.8-0.013c1.902-0.001,3.748-0.111,3.615,2.719
			c-0.122,2.584-1.927,2.268-3.55,2.271C147.967,166.507,138.5,166.498,129.034,166.498z"/>
		<path fill="#C3C0C6" d="M57.479,162.501c9.134,0,18.268-0.018,27.402,0.014c1.896,0.007,4.259-0.575,4.087,2.713
			c-0.156,2.978-2.39,2.24-4.044,2.244c-18.268,0.043-36.536,0.036-54.804,0.013c-1.896-0.002-4.259,0.574-4.087-2.714
			c0.156-2.978,2.389-2.233,4.044-2.243C39.21,162.47,48.345,162.501,57.479,162.501z"/>
		<path fill="#C3C0C6" d="M202.515,166.499c-9.134,0-18.268,0.017-27.402-0.014c-1.9-0.006-4.258,0.566-4.079-2.719
			c0.161-2.975,2.397-2.235,4.05-2.239c18.268-0.043,36.535-0.036,54.803-0.014c1.901,0.002,4.257-0.563,4.079,2.721
			c-0.161,2.979-2.398,2.225-4.05,2.236C220.783,166.53,211.649,166.499,202.515,166.499z"/>
		<path fill="#C3C0C6" d="M129.546,108.501c9.134,0,18.268-0.028,27.402,0.026c1.666,0.01,3.887-0.704,4.021,2.27
			c0.149,3.294-2.23,2.685-4.113,2.687c-18.268,0.026-36.536,0.03-54.804-0.009c-1.665-0.004-3.887,0.703-4.021-2.271
			c-0.149-3.294,2.23-2.68,4.113-2.687C111.278,108.481,120.412,108.501,129.546,108.501z"/>
		<path fill="#C3C0C6" d="M202.43,113.499c-9.134,0-18.268,0.026-27.402-0.024c-1.678-0.009-3.885,0.673-3.998-2.297
			c-0.125-3.298,2.27-2.658,4.139-2.661c18.268-0.029,36.536-0.031,54.804,0.006c1.677,0.003,3.885-0.672,3.998,2.297
			c0.125,3.298-2.269,2.652-4.139,2.66C220.698,113.521,211.564,113.499,202.43,113.499z"/>
		<path fill="#C3C0C6" d="M57.472,109.501c9.134,0,18.268-0.018,27.402,0.015c1.892,0.007,4.26-0.585,4.094,2.705
			c-0.15,2.977-2.38,2.248-4.038,2.252c-18.268,0.042-36.536,0.036-54.804,0.012c-1.892-0.002-4.26,0.584-4.094-2.706
			c0.15-2.977,2.379-2.241,4.038-2.251C39.203,109.471,48.338,109.501,57.472,109.501z"/>
		<path fill="#C3C0C6" d="M129.554,117.501c9.134,0,18.268-0.028,27.402,0.025c1.67,0.01,3.886-0.694,4.014,2.279
			c0.141,3.295-2.244,2.676-4.121,2.679c-18.268,0.027-36.536,0.031-54.804-0.008c-1.669-0.004-3.886,0.693-4.014-2.28
			c-0.141-3.295,2.243-2.67,4.121-2.678C111.286,117.48,120.42,117.501,129.554,117.501z"/>
		<path fill="#C3C0C6" d="M202.25,122.499c-9.134,0-18.268,0.011-27.402-0.009c-1.774-0.004-3.834,0.407-3.833-2.491
			c0.001-2.898,2.062-2.488,3.835-2.489c18.434-0.014,36.868-0.014,55.302,0c1.774,0.001,3.834-0.406,3.833,2.491
			c-0.001,2.897-2.062,2.485-3.835,2.489C220.85,122.509,211.55,122.499,202.25,122.499z"/>
		<path fill="#C3C0C6" d="M57.166,123.499c-8.968,0-17.936,0.029-26.903-0.024c-1.828-0.011-4.275,0.745-4.236-2.562
			c0.035-2.932,2.182-2.396,3.909-2.398c18.434-0.024,36.868-0.018,55.302-0.01c1.816,0.001,3.812-0.3,3.745,2.58
			c-0.068,2.933-2.191,2.391-3.917,2.397C75.766,123.517,66.466,123.499,57.166,123.499z"/>
		<path fill="#C3C0C6" d="M57.02,158.498c-9.134,0-18.268-0.006-27.402,0.005c-1.913,0.002-3.741,0.087-3.599-2.735
			c0.13-2.591,1.95-2.254,3.563-2.256c18.6-0.016,37.2-0.007,55.8-0.015c1.913-0.001,3.741-0.087,3.6,2.735
			c-0.13,2.591-1.95,2.252-3.563,2.255C75.952,158.508,66.486,158.498,57.02,158.498z"/>
		<path fill="#C3C0C6" d="M202.02,157.498c-9.134,0-18.268-0.006-27.402,0.005c-1.913,0.002-3.741,0.087-3.6-2.735
			c0.13-2.591,1.95-2.254,3.563-2.256c18.6-0.016,37.2-0.007,55.8-0.015c1.913-0.001,3.741-0.087,3.6,2.735
			c-0.13,2.591-1.95,2.252-3.563,2.255C220.952,157.508,211.486,157.498,202.02,157.498z"/>
		<path fill="#C3C0C6" d="M129.528,157.499c-9.134,0-18.268,0.018-27.402-0.015c-1.892-0.007-4.26,0.585-4.094-2.705
			c0.15-2.977,2.38-2.248,4.038-2.252c18.268-0.042,36.536-0.036,54.804-0.012c1.891,0.002,4.26-0.584,4.094,2.706
			c-0.15,2.977-2.379,2.241-4.038,2.251C147.797,157.529,138.662,157.499,129.528,157.499z"/>
		<path fill="#C3C0C6" d="M129.493,143.501c9.134,0,18.268-0.016,27.402,0.013c1.906,0.006,4.255-0.551,4.072,2.729
			c-0.166,2.98-2.409,2.225-4.057,2.229c-18.268,0.045-36.536,0.037-54.804,0.016c-1.906-0.002-4.255,0.55-4.071-2.729
			c0.166-2.98,2.408-2.217,4.057-2.228C111.225,143.469,120.359,143.501,129.493,143.501z"/>
		<path fill="#C3C0C6" d="M202.43,148.499c-9.134,0-18.268,0.026-27.402-0.024c-1.677-0.009-3.885,0.673-3.998-2.297
			c-0.125-3.298,2.27-2.658,4.139-2.661c18.268-0.029,36.536-0.031,54.804,0.006c1.677,0.003,3.885-0.672,3.998,2.297
			c0.125,3.298-2.269,2.652-4.139,2.66C220.698,148.521,211.564,148.499,202.43,148.499z"/>
		<path fill="#C3C0C6" d="M57.449,144.502c9.3,0,18.6,0.003,27.9-0.003c1.888-0.001,3.756-0.139,3.635,2.699
			c-0.11,2.575-1.897,2.291-3.532,2.292c-18.6,0.012-37.2,0.006-55.8,0.011c-1.888,0-3.756,0.139-3.635-2.699
			c0.11-2.575,1.897-2.289,3.532-2.291C38.848,144.495,48.149,144.503,57.449,144.502z"/>
		<path fill="#C3C0C6" d="M52.541,132.498c-7.635,0-15.269-0.005-22.904,0.004c-1.895,0.002-3.748,0.121-3.621-2.71
			c0.116-2.577,1.91-2.279,3.538-2.281c15.269-0.014,30.538-0.006,45.807-0.012c1.895-0.001,3.748-0.121,3.621,2.71
			c-0.116,2.577-1.91,2.276-3.538,2.28C67.81,132.508,60.176,132.497,52.541,132.498z"/>
		<path fill="#C3C0C6" d="M197.483,131.498c-7.635,0-15.269,0.013-22.904-0.011c-1.612-0.005-3.431,0.335-3.561-2.254
			c-0.142-2.817,1.68-2.737,3.595-2.736c15.269,0.009,30.538-0.002,45.807,0.016c1.612,0.002,3.431-0.334,3.561,2.254
			c0.142,2.817-1.68,2.74-3.595,2.736C212.752,131.49,205.118,131.498,197.483,131.498z"/>
		<path fill="#C3C0C6" d="M124.49,131.498c-7.635,0-15.269,0.014-22.903-0.011c-1.608-0.005-3.434,0.345-3.567-2.247
			c-0.145-2.812,1.667-2.745,3.587-2.743c15.269,0.01,30.538-0.002,45.807,0.017c1.608,0.002,3.434-0.345,3.567,2.247
			c0.145,2.812-1.667,2.747-3.587,2.744C139.759,131.49,132.125,131.498,124.49,131.498z"/>
		<path fill="#C3C0C6" d="M114.464,175.494c-4.47,0-8.94-0.007-13.41,0.003c-1.597,0.004-2.949-0.127-3.04-2.281
			c-0.098-2.341,1.187-2.734,3.106-2.726c8.609,0.035,17.218,0.019,25.826,0.012c1.597-0.001,2.95,0.127,3.04,2.281
			c0.098,2.341-1.187,2.748-3.106,2.726C122.742,175.461,118.603,175.494,114.464,175.494z"/>
		<path fill="#C3C0C6" d="M186.933,175.494c-4.304,0-8.609-0.012-12.913,0.006c-1.625,0.007-2.928-0.188-3.007-2.318
			c-0.087-2.361,1.251-2.697,3.141-2.69c8.609,0.031,17.218,0.021,25.826,0.007c1.627-0.003,2.929,0.184,3.007,2.315
			c0.086,2.357-1.249,2.713-3.141,2.694C195.542,175.465,191.237,175.494,186.933,175.494z"/>
		<path fill="#C3C0C6" d="M41.347,176.494c-4.138-0.001-8.276-0.021-12.414,0.009c-1.686,0.012-2.893-0.338-2.921-2.407
			c-0.027-1.96,0.92-2.602,2.729-2.597c8.441,0.026,16.883,0.02,25.324-0.003c1.685-0.005,2.874,0.34,2.924,2.405
			c0.058,2.404-1.402,2.617-3.229,2.603C49.623,176.473,45.485,176.495,41.347,176.494z"/>
		<path fill="#FEFEFE" d="M136.439,15.5c27.641,0,55.282-0.003,82.923,0.002c6.462,0.001,7.498,1.29,6.65,7.69
			c-0.296,2.237-1.332,3.288-3.532,3.292c-0.666,0.001-1.332,0.016-1.998,0.016C164.534,26.5,108.586,26.46,52.639,26.578
			c-4.397,0.009-5.783-1.429-5.763-5.767c0.019-4.251,1.62-5.395,5.642-5.377C80.49,15.559,108.465,15.5,136.439,15.5z"/>
		<path fill="#FBFBFC" d="M240.937,20.111c-0.716,1.923-1.908,3.943-3.96,3.901c-1.998-0.041-3.755-1.922-3.758-4.015
			c-0.004-2.91,2.366-1.62,4.04-1.876C239.23,17.821,240.503,17.808,240.937,20.111z"/>
		<path fill="#F8B360" d="M27.191,18.534c1.479,0.145,2.617,0.701,2.516,2.055c-0.095,1.265-0.645,2.699-2.267,2.757
			c-1.285,0.046-2.163-0.812-2.315-2.118C24.934,19.597,26,18.908,27.191,18.534z"/>
		<path fill="#FA585A" d="M18.312,18.574c1.749-0.023,2.324,1.5,2.232,2.333c-0.139,1.256-1.279,2.441-2.777,2.376
			c-1.058-0.046-1.704-0.97-1.705-2.092C16.06,19.615,16.916,18.753,18.312,18.574z"/>
		<path fill="#6BB455" d="M35.918,23.384c-1.332-0.348-1.972-1.215-1.843-2.54c0.127-1.316,0.932-2.121,2.25-2.264
			c1.592-0.172,2.159,1.238,2.179,2.212C38.532,22.195,37.248,22.955,35.918,23.384z"/>
	</g>
</g>
</svg>
