<?xml version="1.0" encoding="utf-8"?>
<!-- Generator: Adobe Illustrator 17.1.0, SVG Export Plug-In . SVG Version: 6.00 Build 0)  -->
<!DOCTYPE svg PUBLIC "-//W3C//DTD SVG 1.1//EN" "http://www.w3.org/Graphics/SVG/1.1/DTD/svg11.dtd">
<svg version="1.1" id="Layer_1" xmlns="http://www.w3.org/2000/svg" xmlns:xlink="http://www.w3.org/1999/xlink" x="0px" y="0px"
	 viewBox="0 0 256 206" enable-background="new 0 0 256 206" xml:space="preserve">
<g id="RUAEbx_1_">
	<g>
		<g>
			<path fill="#FEFEFE" d="M9,187.5c0-52,0-104,0-156c80,0,160,0,240,0c0,51.667,0,103.333,0,155
				c-3.528,3.002-7.706,3.053-12.076,3.049c-72.142-0.07-144.285-0.054-216.427-0.037C16.532,189.513,12.543,189.831,9,187.5z
				 M185.251,102.5c14.658,0,29.318-0.106,43.975,0.076c3.549,0.044,4.924-0.642,4.872-4.593c-0.226-17.321-0.226-34.648,0-51.968
				c0.052-3.952-1.329-4.605-4.873-4.589c-29.15,0.131-58.301,0.131-87.451,0c-3.545-0.016-4.923,0.64-4.871,4.59
				c0.226,17.321,0.226,34.648,0,51.968c-0.052,3.952,1.326,4.636,4.873,4.591C156.266,102.393,170.759,102.5,185.251,102.5z
				 M74.101,102.499c14.992,0,29.984-0.073,44.975,0.062c3.027,0.027,4.013-0.813,3.989-3.928
				c-0.136-17.656-0.14-35.314,0.002-52.97c0.026-3.249-0.9-4.243-4.195-4.23c-29.65,0.116-59.301,0.107-88.952,0.008
				c-3.027-0.01-4.011,0.806-3.986,3.923c0.138,17.656,0.141,35.314-0.001,52.97c-0.026,3.245,0.89,4.272,4.192,4.235
				C44.783,102.407,59.442,102.499,74.101,102.499z M185.472,108.5c-14.632,0-29.264-0.034-43.896,0.046
				c-1.718,0.009-4.352-1.099-4.519,2.233c-0.187,3.721,2.676,2.68,4.576,2.684c29.264,0.052,58.528,0.054,87.792-0.009
				c1.717-0.004,4.352,1.098,4.519-2.235c0.187-3.721-2.675-2.674-4.576-2.683C214.736,108.47,200.104,108.5,185.472,108.5z
				 M74.507,114.5c14.632,0,29.264,0.036,43.896-0.048c1.713-0.01,4.351,1.119,4.539-2.211c0.21-3.716-2.643-2.703-4.553-2.707
				c-29.264-0.049-58.528-0.053-87.792,0.012c-1.712,0.004-4.35-1.118-4.539,2.212c-0.21,3.716,2.642,2.697,4.553,2.706
				C45.243,114.529,59.875,114.5,74.507,114.5z M186.008,117.5c-14.798,0-29.597-0.029-44.395,0.036
				c-1.909,0.008-4.763-1.014-4.556,2.703c0.186,3.33,2.824,2.211,4.537,2.215c29.264,0.064,58.528,0.061,87.792,0.011
				c1.909-0.003,4.763,1.013,4.555-2.704c-0.186-3.33-2.823-2.203-4.537-2.213C214.94,117.464,200.474,117.5,186.008,117.5z
				 M74.441,123.5c14.632,0,29.264,0.032,43.896-0.039c1.89-0.009,4.759,1.068,4.608-2.65c-0.135-3.336-2.765-2.264-4.491-2.267
				c-29.264-0.06-58.528-0.059-87.792-0.005c-1.889,0.004-4.759-1.067-4.608,2.652c0.135,3.336,2.764,2.257,4.491,2.266
				C45.177,123.533,59.809,123.5,74.441,123.5z M185.428,148.5c14.632,0,29.264,0.033,43.896-0.04
				c1.886-0.009,4.757,1.081,4.622-2.637c-0.121-3.338-2.749-2.278-4.478-2.281c-29.264-0.058-58.528-0.059-87.792-0.003
				c-1.885,0.004-4.757-1.08-4.622,2.638c0.121,3.338,2.748,2.271,4.478,2.28C156.164,148.532,170.796,148.5,185.428,148.5z
				 M74.559,144.5c-14.632,0-29.264-0.032-43.896,0.039c-1.89,0.009-4.759-1.068-4.608,2.65c0.135,3.336,2.765,2.264,4.491,2.267
				c29.264,0.06,58.528,0.059,87.792,0.005c1.889-0.004,4.759,1.067,4.608-2.652c-0.135-3.336-2.764-2.257-4.491-2.266
				C103.823,144.467,89.191,144.5,74.559,144.5z M185.434,152.501c-14.798,0-29.597-0.017-44.395,0.024
				c-1.675,0.005-3.892-0.684-4.009,2.291c-0.13,3.303,2.269,2.665,4.14,2.667c29.597,0.024,59.193,0.026,88.79-0.006
				c1.675-0.002,3.892,0.683,4.009-2.292c0.13-3.303-2.268-2.662-4.14-2.666C215.031,152.487,200.233,152.501,185.434,152.501z
				 M74.063,158.499c14.965,0,29.929,0.017,44.894-0.024c1.673-0.005,3.892,0.689,4.013-2.287c0.134-3.303-2.262-2.669-4.136-2.671
				c-29.597-0.024-59.193-0.025-88.79,0.007c-1.673,0.002-3.892-0.688-4.013,2.288c-0.134,3.302,2.262,2.666,4.136,2.67
				C44.799,158.513,59.431,158.499,74.063,158.499z M185.547,166.499c14.798,0,29.597,0.018,44.395-0.025
				c1.666-0.005,3.893,0.707,4.027-2.271c0.148-3.3-2.239-2.685-4.121-2.686c-29.597-0.022-59.193-0.025-88.79,0.009
				c-1.666,0.002-3.893-0.707-4.026,2.272c-0.148,3.3,2.239,2.682,4.121,2.686C155.95,166.512,170.749,166.499,185.547,166.499z
				 M74.436,167.5c14.632,0,29.264,0.032,43.896-0.04c1.889-0.009,4.758,1.073,4.613-2.645c-0.13-3.337-2.759-2.269-4.486-2.272
				c-29.264-0.059-58.528-0.059-87.792-0.004c-1.888,0.004-4.758-1.072-4.613,2.646c0.13,3.337,2.758,2.262,4.486,2.271
				C45.172,167.532,59.804,167.5,74.436,167.5z M177.935,131.499c12.299,0,24.598,0.016,36.897-0.017
				c1.872-0.005,4.268,0.634,4.137-2.667c-0.118-2.974-2.333-2.289-4.008-2.291c-24.598-0.034-49.197-0.032-73.795-0.007
				c-1.872,0.002-4.268-0.634-4.137,2.667c0.118,2.974,2.333,2.284,4.008,2.29C153.337,131.52,165.636,131.499,177.935,131.499z
				 M66.946,127.501c-12.299,0-24.598-0.021-36.897,0.025c-1.669,0.006-3.891-0.697-4.018,2.278
				c-0.142,3.299,2.247,2.677,4.125,2.679c24.598,0.024,49.197,0.027,73.795-0.008c1.669-0.002,3.89,0.697,4.018-2.279
				c0.142-3.299-2.247-2.674-4.125-2.679C91.545,127.485,79.246,127.501,66.946,127.501z M161.491,170.502
				c-6.968,0-13.937-0.015-20.905,0.011c-1.608,0.006-3.433-0.345-3.567,2.246c-0.145,2.809,1.663,2.746,3.585,2.744
				c13.937-0.011,27.874,0.002,41.81-0.017c1.608-0.002,3.433,0.345,3.567-2.246c0.145-2.809-1.663-2.749-3.585-2.745
				C175.428,170.511,168.459,170.502,161.491,170.502z M50.487,176.498c6.968,0,13.937-0.009,20.905,0.006
				c1.917,0.004,3.733,0.073,3.589-2.74c-0.132-2.589-1.952-2.249-3.563-2.251c-13.937-0.018-27.874-0.006-41.81-0.016
				c-1.917-0.001-3.733-0.073-3.589,2.74c0.132,2.589,1.952,2.245,3.563,2.25C36.55,176.512,43.518,176.498,50.487,176.498z"/>
			<path fill="#E0E2E5" d="M249,31.5c-80,0-160,0-240,0c0-6.322,0.065-12.645-0.045-18.966c-0.028-1.626,0.162-2.454,2.009-2.056
				C11.6,10.615,12.29,10.5,12.956,10.5c77.363,0,154.726,0.031,232.088-0.101c3.494-0.006,4.253,0.769,4.049,4.136
				C248.752,20.172,249,25.843,249,31.5z M136.445,15.5c-27.974,0-55.948,0.059-83.921-0.066c-4.014-0.018-5.547,1.124-5.662,5.367
				c-0.133,4.9,1.942,5.781,6.271,5.772c55.615-0.11,111.229-0.072,166.844-0.073c0.832,0,1.665-0.016,2.497-0.016
				c2.198-0.002,3.239-1.047,3.538-3.285c0.853-6.398-0.189-7.695-6.644-7.696C191.727,15.496,164.086,15.499,136.445,15.5z
				 M237.041,18.288c-2.143-0.937-3.698-0.165-3.643,2.13c0.046,1.882,1.768,3.626,3.443,3.595c2.19-0.041,3.983-1.879,3.916-4.221
				C240.689,17.403,238.79,17.673,237.041,18.288z M25.06,21.276c0.203,1.192,0.863,2.282,2.176,1.957
				c1.215-0.301,2.436-1.235,2.463-2.685c0.025-1.348-1.069-2.014-2.317-1.938C25.875,18.702,25.105,19.687,25.06,21.276z"/>
			<path fill="#E0E2E5" d="M9,187.5c3.543,2.331,7.532,2.013,11.497,2.012c72.142-0.017,144.285-0.033,216.427,0.037
				c4.37,0.004,8.548-0.047,12.076-3.049c0,3.66,1.425,8.72-0.404,10.582c-1.798,1.83-6.901,0.418-10.554,0.418
				c-74.524,0.001-149.048-0.057-223.571,0.136c-4.736,0.012-6.411-0.978-5.514-5.652C9.234,190.539,9,188.997,9,187.5z"/>
			<path fill="#9D9BA0" d="M185.251,102.5c-14.492,0-28.985-0.107-43.475,0.076c-3.547,0.045-4.925-0.639-4.873-4.591
				c0.226-17.321,0.226-34.648,0-51.968c-0.052-3.95,1.326-4.606,4.871-4.59c29.15,0.131,58.301,0.131,87.451,0
				c3.543-0.016,4.924,0.637,4.873,4.589c-0.226,17.321-0.226,34.648,0,51.968c0.052,3.95-1.323,4.637-4.872,4.593
				C214.569,102.394,199.909,102.5,185.251,102.5z"/>
			<path fill="#9D9BA0" d="M74.101,102.499c-14.659,0-29.319-0.092-43.975,0.07c-3.302,0.037-4.218-0.991-4.192-4.235
				c0.141-17.656,0.138-35.314,0.001-52.97c-0.024-3.118,0.96-3.934,3.986-3.923c29.65,0.099,59.301,0.108,88.952-0.008
				c3.295-0.013,4.221,0.981,4.195,4.23c-0.142,17.656-0.138,35.314-0.002,52.97c0.024,3.115-0.961,3.955-3.989,3.928
				C104.086,102.426,89.093,102.499,74.101,102.499z"/>
			<path fill="#C3C0C6" d="M185.472,108.5c14.632,0,29.264-0.031,43.896,0.037c1.901,0.009,4.763-1.038,4.576,2.683
				c-0.167,3.333-2.802,2.231-4.519,2.235c-29.264,0.062-58.528,0.061-87.792,0.009c-1.9-0.003-4.763,1.037-4.576-2.684
				c0.167-3.333,2.801-2.224,4.519-2.233C156.207,108.466,170.84,108.5,185.472,108.5z"/>
			<path fill="#C3C0C6" d="M74.507,114.5c-14.632,0-29.264,0.029-43.896-0.036c-1.911-0.008-4.763,1.011-4.553-2.706
				c0.188-3.33,2.827-2.208,4.539-2.212c29.264-0.064,58.528-0.061,87.792-0.012c1.91,0.003,4.763-1.009,4.553,2.707
				c-0.188,3.33-2.826,2.201-4.539,2.211C103.771,114.535,89.139,114.5,74.507,114.5z"/>
			<path fill="#C3C0C6" d="M186.008,117.5c14.466,0,28.932-0.036,43.397,0.048c1.714,0.01,4.351-1.117,4.537,2.213
				c0.208,3.717-2.647,2.701-4.555,2.704c-29.264,0.05-58.528,0.053-87.792-0.011c-1.712-0.004-4.351,1.116-4.537-2.215
				c-0.208-3.717,2.646-2.695,4.556-2.703C156.411,117.471,171.21,117.5,186.008,117.5z"/>
			<path fill="#C3C0C6" d="M74.441,123.5c-14.632,0-29.264,0.033-43.896-0.044c-1.727-0.009-4.355,1.07-4.491-2.266
				c-0.151-3.719,2.718-2.648,4.608-2.652c29.264-0.055,58.528-0.055,87.792,0.005c1.726,0.004,4.355-1.069,4.491,2.267
				c0.151,3.719-2.718,2.641-4.608,2.65C103.706,123.532,89.073,123.5,74.441,123.5z"/>
			<path fill="#C3C0C6" d="M185.428,148.5c-14.632,0-29.264,0.032-43.896-0.043c-1.73-0.009-4.357,1.058-4.478-2.28
				c-0.135-3.718,2.737-2.634,4.622-2.638c29.264-0.056,58.528-0.055,87.792,0.003c1.729,0.003,4.357-1.056,4.478,2.281
				c0.135,3.717-2.736,2.627-4.622,2.637C214.693,148.533,200.06,148.5,185.428,148.5z"/>
			<path fill="#C3C0C6" d="M74.559,144.5c14.632,0,29.264-0.033,43.896,0.044c1.726,0.009,4.356-1.07,4.491,2.266
				c0.151,3.719-2.718,2.648-4.608,2.652c-29.264,0.055-58.528,0.055-87.792-0.005c-1.725-0.004-4.355,1.069-4.491-2.267
				c-0.151-3.719,2.718-2.641,4.608-2.65C45.294,144.468,59.927,144.5,74.559,144.5z"/>
			<path fill="#C3C0C6" d="M185.434,152.501c14.798,0,29.597-0.014,44.395,0.017c1.872,0.004,4.27-0.637,4.14,2.666
				c-0.117,2.975-2.334,2.29-4.009,2.292c-29.597,0.032-59.193,0.03-88.79,0.006c-1.872-0.002-4.27,0.637-4.14-2.667
				c0.117-2.975,2.334-2.287,4.009-2.291C155.838,152.484,170.636,152.501,185.434,152.501z"/>
			<path fill="#C3C0C6" d="M74.063,158.499c-14.632,0-29.264,0.014-43.896-0.017c-1.874-0.004-4.27,0.632-4.136-2.67
				c0.121-2.976,2.34-2.286,4.013-2.288c29.597-0.032,59.193-0.031,88.79-0.007c1.874,0.001,4.27-0.632,4.136,2.671
				c-0.121,2.976-2.34,2.282-4.013,2.287C103.992,158.517,89.027,158.499,74.063,158.499z"/>
			<path fill="#C3C0C6" d="M185.547,166.499c-14.798,0-29.597,0.013-44.395-0.016c-1.882-0.004-4.269,0.614-4.121-2.686
				c0.133-2.979,2.36-2.27,4.026-2.272c29.597-0.034,59.193-0.031,88.79-0.009c1.881,0.001,4.269-0.614,4.121,2.686
				c-0.133,2.979-2.36,2.266-4.027,2.271C215.144,166.518,200.346,166.499,185.547,166.499z"/>
			<path fill="#C3C0C6" d="M74.436,167.5c-14.632,0-29.264,0.033-43.896-0.044c-1.728-0.009-4.356,1.066-4.486-2.271
				c-0.145-3.718,2.725-2.643,4.613-2.646c29.264-0.055,58.528-0.055,87.792,0.004c1.727,0.003,4.356-1.064,4.486,2.272
				c0.145,3.718-2.725,2.636-4.613,2.645C103.701,167.532,89.069,167.5,74.436,167.5z"/>
			<path fill="#C3C0C6" d="M177.935,131.499c-12.299,0-24.598,0.02-36.897-0.024c-1.675-0.006-3.89,0.683-4.008-2.29
				c-0.131-3.301,2.265-2.665,4.137-2.667c24.598-0.025,49.197-0.027,73.795,0.007c1.674,0.002,3.89-0.683,4.008,2.291
				c0.131,3.301-2.265,2.662-4.137,2.667C202.534,131.516,190.235,131.499,177.935,131.499z"/>
			<path fill="#C3C0C6" d="M66.946,127.501c12.299,0,24.598-0.016,36.897,0.017c1.878,0.005,4.267-0.62,4.125,2.679
				c-0.128,2.976-2.349,2.277-4.018,2.279c-24.598,0.035-49.197,0.032-73.795,0.008c-1.878-0.002-4.267,0.62-4.125-2.679
				c0.128-2.976,2.349-2.272,4.018-2.278C42.348,127.48,54.647,127.501,66.946,127.501z"/>
			<path fill="#C3C0C6" d="M161.491,170.502c6.968,0,13.937,0.009,20.905-0.006c1.921-0.004,3.73-0.065,3.585,2.745
				c-0.134,2.591-1.959,2.244-3.567,2.246c-13.937,0.019-27.874,0.006-41.81,0.017c-1.921,0.001-3.73,0.065-3.585-2.744
				c0.134-2.591,1.959-2.24,3.567-2.246C147.554,170.487,154.523,170.502,161.491,170.502z"/>
			<path fill="#C3C0C6" d="M50.487,176.498c-6.968,0-13.937,0.014-20.905-0.011c-1.61-0.006-3.431,0.339-3.563-2.25
				c-0.143-2.813,1.672-2.741,3.589-2.74c13.937,0.01,27.874-0.002,41.81,0.016c1.61,0.002,3.431-0.338,3.563,2.251
				c0.143,2.813-1.672,2.744-3.589,2.74C64.423,176.489,57.455,176.498,50.487,176.498z"/>
			<path fill="#FEFEFE" d="M136.445,15.5c27.641,0,55.282-0.003,82.923,0.002c6.455,0.001,7.497,1.298,6.644,7.696
				c-0.299,2.238-1.34,3.284-3.538,3.285c-0.832,0.001-1.665,0.016-2.497,0.016c-55.615,0.001-111.23-0.036-166.844,0.073
				c-4.329,0.009-6.403-0.872-6.271-5.772c0.115-4.242,1.648-5.385,5.662-5.367C80.497,15.558,108.471,15.5,136.445,15.5z"/>
			<path fill="#FBFCFC" d="M237.041,18.288c1.749-0.615,3.649-0.885,3.717,1.503c0.067,2.342-1.727,4.18-3.916,4.221
				c-1.676,0.031-3.398-1.713-3.443-3.595C233.342,18.123,234.898,17.351,237.041,18.288z"/>
			<path fill="#F9B05A" d="M25.06,21.276c0.046-1.589,0.815-2.574,2.322-2.666c1.247-0.076,2.342,0.589,2.317,1.938
				c-0.027,1.45-1.248,2.384-2.463,2.685C25.923,23.558,25.262,22.469,25.06,21.276z"/>
		</g>
	</g>
</g>
</svg>
